<svg width="500" height="290" xmlns="http://www.w3.org/2000/svg"><title>Layer 1</title><path fill="#0085ff" d="M279.4 13c-.6 0-1 .2-1.2.4-.3.5-1.6.6-2.8.3-1.3-.3-3.3-.2-4.4.3-1 .5-2.6.8-3.3.7-1.3-.2-3 2.5-3.3 5 0 .7-2.3 1-5 .8-3.6-.3-5 0-4.6 1.2.2 1-1 1.5-3.4 1.6-2 0-4 .4-4.6.8-.4.6-2.6 1-5 1l-4 .2 4 .7c2.2.3 3.8 1 3.4 1.5-.3.5.6 1.7 2 2.7 2 1.4 3 1.6 4.4.5 1-1 2.3-1 3.7-.2 5.4 2.8 11.2 2.7 17-.4 4-2 6-2.5 7-1.6 1.8 1.8-1.2 4-9.2 6.6-5 1.7-7.5 2-9.4 1.2-2.7-1.2-6-.5-6 1.3s8 6 10.4 5.4c2.7-1 3.8 1 1.7 2.7-2.4 2-14 0-14-2.3 0-1-.8-2.4-2-3.2-1-.8-1.6-2.2-1.2-3.2.3-1 .2-1.6-.3-1.5-1.2.3-5-1-7.4-2.5-3.5-2.2-4.7-2.5-6.6-1.8-1.7.7-1.8 1-.3 2 1.6 1 1.2 1-2.8 1.5-.8 0-2 .8-2.8 1.8-1.6 2 1.2 4.5 5.4 4.6 1.6 0 3.7.7 4.7 1.3 1.3.8 1 1.2-2.2 2-3 .5-3.5 1-2 1.7 1 .6 1.6 1.5 1.2 2-.3.7 1.3 1.2 4 1.2 3 0 5-.7 6.5-2.3 1.6-2 2.4-2 3.6-1l5 3c2 1 3.7 2.5 3.8 3 .3 2-3.6 2-5.5.2-1-1-1.4-1.8-.8-1.8.6 0 1.5.5 2 1 .3.8 1.5 1.3 2.5 1.3 1.5 0 1.3-.4-.7-2-2.2-1.4-3.2-1.5-5.8-.4-2.7 1.3-2.8 1.6-1 2.6 2 1 1.7 3.2-.7 3.2-.8 0-.7-.5.4-1.2.8-.6 1-1 .5-1-2 0-4.7 2-3.8 2.8.4.4 5.3 1 10.8 1.2 5.6.3 10.4.7 10.7 1 .8 1 1.3.8 5.6-.7 4-1.5 5.4-3.5 1.8-2.5-3 .7-8.7-1.7-7.7-3.2.3-.7 2-1 3.5-.6 1.6.5 4.3 0 6.5-1.2l5.4-2.7c1-.3 1.8-1.4 2-2.2.5-1 0-1.3-2.2-.8-1.6.4-3.2.4-3.6 0-1.4-1.4 1.7-4 4.6-4 1.6 0 2.5-.4 2.2-1-1.2-2 1.2-2.3 5-1 3 1.3 4 1.2 4.7 0 .7-1 5.2-3.8 10.2-6.2 5-2.4 8.4-4.3 7.7-4.3-.8 0-2.4-.4-3.6-.8-1.5-.5-1.7-.4-.5.4 1 1 .6 1.5-2 2.5-4 1.3-6 0-3.5-2 .8-.5 3.8-1.8 6.7-2.7 7-2.4 11.6-4.5 11.6-5.4 0-.4-1.5-1.6-3.2-2.6-2.3-1.3-4.2-1.5-6.7-.8-4 1-7 .4-6-1.2s-4.8-2.6-11.6-2c-3.3.4-8.4.2-11.3-.3-1.4-.3-2.8-.5-4-.5h-.6zm110 0c-3 0-5.3.7-4.7 1.5 1.3 2.2-2.7 2.5-6.4.6-3-1.4-4.4-1.6-6.4-.7-1.8.8-3 .8-4 0-1.5-1.6-4.7-.3-4.7 2 0 2.2 1.8 2.2 2.7-.2.6-1.5 1-1.3 3.5 1 2 1.8 2.5 3 1.7 4-1 1.2-6.8 1.3-12.6.4-4.3-.7-8 0-7.4 1.7 1 2.4-1.3 3.4-3 1.3-1.7-2-3.6-2.2-3.2-.3.2 1-1.6 1.4-6.6 1-6.6-.2-14.3 2-12.6 3.8 1.2 1-2 4.4-3.8 3.8-.8-.4-1.8-.2-2 .4-.5.6-1.4.8-2.2.5-2-.7-10.7 3.6-9.2 4.5.6.4 2.7.3 4.7-.3 4.8-1.4 5.6.2 2.4 4.5-1.8 2.5-3.6 3.5-5.8 3.5-2 0-3.6.6-4 1.2-.4.6-1.3.8-2 .4-1.3-1-9 1.7-9 3 0 1 1.4 1.4 9.7 1.6 2.5 0 4.8.8 5 1.6.6 1.6-.4 2-7.2 3.2-4 .8-4.3 1-1.7 1.6 1.6.4 2.6 1.2 2.3 1.7-.8 1.6 3.8 3 6.5 2 1.2-.5 6.4-1 11.5-1 5-.2 9.6-.6 10-1 .5-.2 1.7 1 2.6 2.8 1 1.8 2.8 4.2 4 5.4 1.4 1.2 2.5 2.8 2.5 3.6 0 .7 1 2.2 2.3 3.3 1.6 1.5 2 3.2 1.7 5.5-.6 4 1.3 4.7 2.3 1 .5-2 1-2.3 2.3-1.2 4 3.3 3 7.3-2 8.6-1.7.3-1.3.5 1 .6 2 0 4.6 1 5.6 2.2 1.8 2 1.8 2.3-.3 4.3-2.3 2-2.3 2.2-.4 3.6 1.8 1.4 1.7 1.6-1.2 2.7-1.8.7-3.2 1.8-3.2 2.6s.5.8 1.7-.2c2.6-2.2 4.5-.2 2.2 2.4-1 1.2-1.6 2.2-1 2.2.6 0 0 .8-1 1.6-1.4 1-1.7 2-1 2.4.8.4 1 1.4.6 2-.6 1-.2 1 1 0 2-1.7 3.6-.4 2 2-.5 1 .3 3.3 2.4 6.3 4.5 6.7 7.7 9.3 11.3 9.4 1.7 0 3.2.8 3.3 1.5 0 .8.2 1.8.3 2 .4 1.5 7.2-3.4 7.3-5V127c-.2-1.2.2-2.7 1-3 .6-.5 1.2-1.8 1.2-3 0-2.5 10-12 11.7-11 .6.5 2.6 0 4.5-.6 3.2-1.4 4.8-3.6 5-7 0-1 .8-1.6 1.6-1.4.8.2 2.5-.7 3.7-2 1.8-1.8 3.8-2.2 9.6-2 4.5 0 8.6-.7 10.7-1.8 2-1 5.3-2.2 7.5-2.7l4-1-4-.8c-2.2-.5-5-.6-6.5-.2-3 .7-4.8-1.6-2.2-2.7 1-.4 1.8-1.5 1.6-2.6-.2-1.3.7-2 3-2.2 2.5-.3 3.4.2 4 2 .6 3 3.7 3.2 3.7.3 0-2.7-6.3-6.4-9.3-5.4-3 1-5-.5-3.4-2.5 1-1.2.7-1.8-1-2.8-3.5-1.8-2-3.8 2-3 2.8.7 3.3.4 3.2-1.3-.2-3 3.8-2.7 7.7.5 1.8 1.3 4.2 2.5 5.2 2.5 1.5 0 1.3-.4-.7-1.8-3.3-2.3-2.3-4 2.4-4 3.4 0 3.5 0 1.3-1.7-1.2-1-1.7-1.8-1-1.8.6 0-.4-.5-2.3-1-4.4-1-4.4-2.8 0-3.7l3.4-.7-3.7-.2c-2 0-4-.6-4.2-1.2-1.2-1.8 3.5-3.6 7.5-2.8 2.8.6 3.6.4 3-.6-.6-.8-1.2-1.2-1.6-.8-1 1-5-1.8-4.5-3.4.3-.8 0-2-.7-2.7-1-.8-.4-1.5 1.8-2.3 1.7-.7 3-2 3-3s1-2.2 2-3c1.8-1 1.7-1-1-.6-3.5 1-4.8 0-3-2.3.6-.8 3.5-1.5 6.3-1.5 3.4 0 5-.5 4.8-1.4-.2-.8 1-1.7 2.3-2 1.5 0 4-1 5.6-1.8l3-1.5-4.7-.8c-2.5-.4-5.5-.3-6.7.3-3 1.6-7.7 2-9.5 1-.8-.5-3-.2-5 .8-3.3 1.7-5.4.8-4-1.6.6-.8-2-1-7.6-.8-6.3.3-10.6 1.3-15.8 3.7-4.2 2-8 3-9.2 2.6-2.8-1-1-2.4 9-6.4 5.8-2.3 11-3.6 14.7-3.6 3 0 7.4-.8 9.6-1.8l4-1.7-6.7.8c-6.8.7-9.5-.7-6-3 2.4-1.4-8.6-1-21 1-3.7.7-7.2 1-7.8.5-1.7-1 1-3 5.7-4 4-.7 4-.8-2.5-.8-3.8 0-8-.2-9.2-.3l-3.4-.2zm-32 1.8c-1.2 0-2.3 1-1.6 2 .3.7 1 1.2 1.7 1.2 1.6 0 2.5-2 1.2-3l-1.3-.2zM352 16c0 .2-.3.2-.4.3-.6.4-.8 1.2-.4 1.8.4.7 1 1 1.8.5.6-.4.7-1.2.3-1.8-.2-.4-.7-.6-1.2-.6zm98 7c-1.2 0-2.3 1-1.7 2 .4.6 1.2 1 1.7 1 1.6 0 2.5-2 1.2-2.8L450 23zm216.8 1c-.6 0-.8 1-.5 2.5 0 .6-.6.7-1.5.4-2.3-1-3.3.3-1.7 2.2 1.3 1.5 3.6 1.7 3 .3.2 0 .4-.2.4-.4l-.2-.2 1-2c1-1 1.2-2 .4-2.4-.3-.2-.5-.3-.8-.3zm11 1.2c-1 0-2.2 1-1.6 2 .4.7 1.2 1.2 1.7 1.2 1.6 0 2.4-2 1-3l-1-.2zm-346.6 1c1.6 0 3.2 1 2.6 2.2-1 1.5-3.8 1.5-4.6 0-.4-.5 0-1.4.5-1.8l1.5-.3zm313.6.4h-.5c-.6.5-.8 1.3-.4 2 .3.5 1 .7 1.7.3.6-.5.7-1.3.4-2-.2-.3-.7-.5-1.2-.4zm111.8 1c-1.2 0-2.3 1-1.7 2 .3.6 1 1 1.6 1 1.6 0 2.5-2 1.2-2.8l-1.2-.3zm-98.5 0c-.7 0-1.8.5-2.8 1-.8.6-1.7.5-2-.2-.5-.7-1.4-1-2-.5-.6.3-.7 1-.4 1.7.4.6 1 .8 1.7.4.5-.2 1.3 0 1.7.6.3.6 1.3 1 2 .8 2.4-.3 4.5-2 4-3-.5-.5-1.2-.8-2-.7zm12.2 0l-.5.3c-.6.3-.7 1-.4 1.7.4.6 1.2.7 1.8.4.7-.3 1-1 .5-1.7-.3-.5-.8-.7-1.3-.6zm-392 1c-1 0-2.6 1-6 2.8-5.4 3-3.5 3.2 3.7.5 1.5-.7 2.8-1.8 2.8-2.4 0-.6 0-1-.4-1h-.3zm29 0c-.7 0-1.5.3-2 .8-1 .8-.5 1 1.5.5 1.5-.5 2-1 1.2-1.4h-.8zm461.7.7c-1 0-2 .6-4 1.7-3.7 2.2-3.8 2.6-2 4 2.2 1.5 10 .7 11.2-1.3.4-.6-.5-2-2-3s-2.4-1.5-3.3-1.4zm-86.5.6c-.5 0-1 0-1.4.3-.7.6-1.7 1-2.2 1-.5 0-1 .4-1 1v1.5c0 .5.7.3 1.4-.5.8-.7 2-1 2.8-.7 2 .7 3.4-1.5 1.8-2.5h-1.3zM635 30c-2 0-5.2 1.2-6.2 2.7-.6 1 3.3 4 5.4 4 .4 0 1 .4 1.6 1 1 1 3-.3 2.2-1.6-.4-.6-1-.8-1.7-.5-.5.2-1.2-.3-1.6-1.2-.3-1 .3-2 1.3-2.3 1.2-.5 1.5-1 .7-2-.3-.2-1-.3-1.6-.3zm7.5 0c-.6 0-1.2.3-2.2 1-2 1.4-2 1.8-.5 3.6 1 1 1.6 2.4 1.4 2.7 0 .4.2.7.8.7.6 0 1.4.4 2 1 1 1 3-.3 2-1.7-.3-.6-1-.8-1.6-.4-.6.4-1.3.2-1.6-.4-.4-.5.5-1.3 2-1.7 3.4-1 3.6-1 3.6.2 0 2 1.8 2.8 3.4 1.4 1-1 2-1 2.4 0 .5.7 1.5.7 3-.2 1.8-1 2-1.6 1.3-2.5-1-1-1.8-1-3 0s-1.7 1-2.3-.5c-.4-1-1-1.6-1.5-1.2-.4.4-1.4.2-2.2-.5-1-.8-1.7-.8-2.2 0-.6 1-1.4.8-2.8-.4-1-.8-1.4-1.2-2-1.2zm32 0c-1.8 0-5.8 3-5.2 4 .4.7 1 1 1.6 1 1.3 0 4.7-4 4-4.8l-.6-.2zm-13.5 1c-.2 0-.4 0-.5.2-.6.3-.7 1.2-.2 2 .4.7 1 1.7 1 2.2l.3 1.7c0 .4 1.2-.2 2.4-1.3 2.2-2 2.2-5 0-3.6-.5.4-1.3 0-1.7-.5-.3-.6-.8-1-1.3-.8zm-96.3 3.6c-1.2 0-1.3.3-1.3 1 0 1-1 2.3-2 3.2-1 1-1.5 1-1 .2 1-1.7-1-3-5.4-3.5-3-.3-3.2 0-2 1.4 1.3 1.6 1.2 2.3-.5 4-1.8 1.7-2 1.7-3.3 0-2.2-3-4.7-3-6.7-.6-1.3 1.6-2.5 2-4 1.4-2.2-.8-2.2-1 0-2.5 2.4-1.8 1.6-2-4-1-2 .5-3.5 1.3-3.5 2 0 .5.5.6 1.2.2 2.4-1.4 3.6.8 1.6 3-1 1.2-2.5 1.8-3.2 1.4-.7-.5-.6 0 .3 1 1.6 2.2 4 1.6 2.7-.6-.4-.8.4-.4 1.8.8 2.3 2 2.6 2 4.5.4 2.6-2.4 6.3-3 7-1 .2.7-1 1.8-2.6 2.4-3.4 1.3-4 2.6-1 2 3.2-.4 2.4 3-.8 4-1.6.4-2 .8-1 1 1 0 2.5.8 3.3 1.7 2 2.6 3 2.2 4.6-1.7.8-2 2.4-4.8 3.6-6.4 2-2.6 2.5-2.7 5-1 1.3 1 3 1.2 3.4.8.5-.5.4.3-.4 1.7-1.3 2.6-1.2 2.7 2.2 2.5 2-.2 4-.6 4-1 .5-.7-5-3.8-9-5-1-.4-1.8-1.2-1.4-1.8.3-.5-.6-1.3-2-1.7-2-.5-2.2-1-1-2 1-1 2.7-1 7.6 0 6 1.4 6.6 1.3 10.5-1.4l4.3-2.8-4-.8c-4-.8-6.4-1.2-7.6-1.2zm26.8.7c-.5 0-1 0-1.4.4-.6.3-1 1-.5 1.7 1 1.5 3.7 1.4 4.6 0 .7-1-1-2.2-2.5-2.2zm12.8.3c-.2 0-.4 0-.5.2-.6.4-.8 1.2-.4 1.8.4.6 1.2.7 1.8.4.6-.4.7-1.2.4-1.8-.3-.5-.8-.7-1.3-.6zm63.6 0c-.2 0-.4 0-.6.2-.6.4-.7 1.2-.4 1.8.4.6 1.2.7 1.8.4.6-.4.8-1.2.4-1.8-.3-.5-.8-.7-1.3-.6zm93.7.2c-.6 0-1.3 0-2 .3-1.7.4-1.8.7-.6 1.5 2 1.3 4.3 1.3 5 0 .7-1-.5-1.8-2.3-1.8zm8.7.5c-1.7 0-3.8.8-6.2 2l-4 2.2 6.7 1.5c3.5.8 7.7 2 9.3 3 3.6 2 4 1.6 4.4-3 .4-5.2-1-6.5-3.4-3.2l-2 2.7-1-2.6c-.4-1.7-1.8-2.6-4-2.5zm-554 .6s-.2 0-.3.2c-.5.4-.4 1.3.4 2.3.7 1 1.8 1.3 2.4 1 .7-.5.6-1.4-.2-2.3-.7-.8-1.6-1.3-2.2-1zm235.2 2.3c-.2 0-.4 0-.5.2-.5.3-.7 1-.3 1.7.4.6 1 .8 1.7.4.7-.3.8-1 .4-1.7-.2-.6-.7-.8-1.2-.7zm-250 1.4c-1.6 0-1.8.7.2 1.8 1 .6 1.5 1.6 1 2.2-.3.7.5 1 2 .5 2-.5 4 .2 7 2.7 4.8 4 6.6 3.5 3.4-1-1.4-2-4.5-4-7.7-5.2-2-.6-3.8-1-5-1h-1zm588.4 1c-1.8 0-3.3 1-5 3.4-1.6 2.2-3 4-3 4.5 0 .3 2 0 4.4-1 2.4-.8 5.4-1.5 6.8-1.6 3.5 0 4.2-1.4 1.6-3.2-2-1.4-3.4-2-4.8-2zm-209.3 1c-1.2 0-2.3 1-1.6 2 .4.6 1.2 1 1.8 1 1.6 0 2.4-2 1.2-2.8-.4-.4-1-.4-1.3-.4zm-6.5 1.2h-.5c-.6.5-.8 1.3-.4 2 .4.5 1.2.6 1.8.3.7-.4 1-1.2.5-1.8-.3-.5-.8-.7-1.3-.6zM764 46c-.2 0-.4 0-.5.2-.6.4-.8 1.2-.4 1.8.4.6 1.2.7 1.8.4.6-.4.8-1.2.4-1.8-.3-.5-.7-.7-1.2-.6zm37 0c-.2 0-.4 0-.5.2-.6.4-.8 1.2-.4 1.8.5.6 1.2.7 1.8.4.7-.4.8-1.2.4-1.8-.2-.5-.7-.7-1.2-.6zm-614 .4c-.4.2-2.4.3-4.3.3-2 0-3.3.4-3 1 .4.4 2.4.7 4.5.5 2-.2 2.7 0 1.5.3-4 1-7.5 3-7 4 1 1.5 1.6 1.3 6-1.4 2.2-1.4 3.8-3 3.5-3.8-.2-.7-.8-1-1.2-1zm35.3.3c-.4 0 0 .4.8 1.4 2 2.2 3.3 2.5 4.3.8.4-.6.2-1-.4-1-.7 0-2.2-.5-3.3-1l-1.4-.3zm227 1.5c-.2 0-.4 0-.5.2-.6.4-.8 1.2-.4 1.8.3.6 1 .8 1.7.4.7-.5 1-1.3.5-2-.2-.3-.7-.5-1.2-.5zm311.2 0c-.2 0-.4 0-.5.2-.6.4-.8 1.2-.4 1.8.4.6 1.2.8 1.8.4.6-.5.7-1.3.4-2-.3-.3-.8-.5-1.3-.5zm-586.5.7c-.3 0-.5.5-.5 1.2 0 .6.6 1 1.2 1 .7 0 1-.4.6-1-.4-.7-1-1.2-1.3-1.2zm26.5 1.6s-.3 0-.5.2c-.6.4-.8 1.2-.4 1.8.4.6 1.2.8 1.8.4.6-.4.8-1.2.4-1.8-.3-.4-.8-.6-1.3-.6zm554.2 0c-.2 0-.4 0-.5.2-.6.4-.8 1.2-.4 1.8.4.6 1.2.8 1.8.4.6-.4.7-1.2.4-1.8-.3-.4-.8-.6-1.3-.6zm38.8.2c-1.6 0-2.7.7-4.2 2.5-2 2-2.3 3.3-1.5 4.3 1.7 2 .2 3-3 2.3-1.6-.3-4.6.3-7 1.4-3 1.5-4.7 1.7-6 .8-1.5-.8-4-.7-8.3.4-3.4 1-8 1.7-10 1.7-3.6 0-10 2.2-11 3.7 0 .4.7 1.5 2 2.4 2 1.6 1.5 5-.7 3.7-.6-.3-4.4-.8-8.6-1-7.2-.3-7.5-.2-7.5 2.4 0 1.6.7 2.7 1.6 2.7 3 0 6.4 4 6.7 7.6.3 2.8 0 3.5-2 3.5-1.7 0-2.2-.6-2-3 0-2.5-.6-3.3-5-5-3.7-1.4-5.6-1.6-6.6-.7-1 1-2 1-3 0-.8-1-1.3-1-1.3-.2s1.5 2.2 3.2 3.3c4.3 2.8 2 5-3 2.4-2.2-1-4-3-4.6-5.5-.6-2-1-3-1-2-.2 1-1 2.6-2 3.5-1 .8-1.5 2.2-1 3.3.6 1.6 1 4 1.5 7.3 0 .5 1.6 1 3.3 1 3.5 0 8.5 4 8.5 7 0 1 .8 2.2 2 2.6 1.2.5 1.5 1 .6 2-1.7 1.6-6-1-6-3.5 0-2.4-2.3-4.8-4.4-4.8-1 0-2.3 2-3.3 4.4-1 2.6-3.4 5.7-5.3 7.2-3.3 2.4-3.6 2.5-7.5.6-2.3-1-3.8-2.4-3.4-3 1-1.4 4.8-1.4 5.8 0 3.6 6 7.6-14.3 4-20.6-.5-1-.4-3 .4-4.5 1.4-3-.3-4.8-4.8-4.8-2 0-3 .8-3.8 3.2-.7 2-2.5 4.3-4 5.3-2.5 1.6-2.7 2-1.4 4.3.8 1.5 2.4 3.3 3.5 4 1 1 2 2.4 2 3.4 0 2.8-3.4 3.2-6 .7-1.6-1.5-5.2-2.8-8.7-3.2-5.6-.8-6.2-.6-8.8 2.4-2 2.2-3.3 3-4.8 2.4-1.7-.7-1.8-1-.4-2.7 1.2-1.7.8-1.6-2 0-1.8 1.4-5 3-7.3 3.7-3.5 1.2-4 1.2-4.5-.8s-.8-2-3.8-.6c-2 1-4.5 1.7-5.8 1.7-1.4 0-4.3 1.7-6.5 3.6-4.4 4-6.4 4.3-8.5 1.7-1.2-1.4-1-1.8 1-2.6 2.4-1 2.3-1-1.5-3-4.5-2-4.8-1.7-3 3.8 1.7 4.4 0 7.7-3.2 6-2-1.2-9 2.8-7.8 4.5.3.5 0 1.5-1 2.3-1.3 1-2.5 1-5.3-.5-3.8-2-4.8-1.3-1.5 1.2 1.4 1 1.6 1.8.6 2.8-2 2-8.3-1.7-9.2-5.5-.5-1.7-2-4-3.2-5-2.2-2-2.2-2-.5-2.8 1-.4 3.5 0 5.4 1 6.3 3.3 16.5 1.6 16.5-2.7 0-1.8-13.4-9.3-16.7-9.3-1 0-2.2-.8-3-1.8-1-1.3-2.8-1.5-7-1-6 .8-9-1-4.3-3 2.6-1 2.6-1-.5-1-1.7 0-3.4-.7-3.8-1.3-.4-.6-1.3-1.2-2-1.2-.5 0-.7.7-.2 1.5.7 1 .5 1.2-1 0-1-1-2-1-3-.2-.7 1-1.3.8-2-.2-.6-1-.4-1 .7-.5 1 .6 1.2.5.7-.4-.6-1-1.5-1-3-.2-1 .6-2.5.8-3 .3s-.5-.2 0 .5c1 2.2-2.8 3.8-6 2.6-2.7-1-2.8-1-1.4 1 1 1 1 1.6.6 1-.6-.3-1.7 0-2.6.6-.8.7-1.5 1-1.5.4 0-.5-.8-.2-1.7.5-1 1-2.3 1.4-3.2 1.3-3.5-.5-4.7 0-3.4 1.5 1.5 2-.2 5-3 5-1.3 0-2 .8-2 2.2 0 1.3-.4 2-.8 1.8-.4-.4-2 .5-3.6 2-1.5 1.4-3.2 2.2-3.7 1.7-.4-.5-.6 0-.2 1.2.5 1.2.2 2.3-.6 2.5-5.7 1.7-6 2-4.3 3 .8.5 1.6 2.4 1.7 4 0 3.5-2.8 5.6-5.4 4-2.2-1.4-3.4-1.4-3 .2 0 .7-.8 1.8-2 2.6-5.8 3.5-6.8 5.6-5 10 .5 1 .7 3.3.5 5.2-.2 3 .2 3.5 2.8 3.8 2 .3 4.3-.7 6.6-2.6l3.5-3 1.7 3.2c1 1.8 2.3 5.3 3 8 2.2 6.4 2.3 6.6 5.4 4.6 1.5-1 3.8-2 5.2-2 2 0 2.4-.4 1.8-2.3-.8-3.4 1-8 3.3-8 1 0 1.7-.6 1.3-1.2-.4-.5 0-1.4.6-1.8.7-.5.3-1.7-1.2-3.4-2-2-2.3-3.3-1.5-7 .8-4.2 2.8-6.2 9.2-9.3.8-.4 1.4-1.8 1.4-3 0-5.5 7-9 10.4-5 1.6 2 1.2 2.6-6 10-3.4 3.7-4 4.8-3.5 9 .5 6.2 2 7.2 7.6 5 5.5-2 11.8-2 14-.2 3.4 3 .4 3.8-13.7 4.5-2.3 0-3 4-1 5.3 1.6 1 1.5 5 0 6-1 .4-2.2-.2-3-1.3-2.2-3-5.4-.3-4.5 4 .6 2.4 0 3.5-3 5.6-2.8 2.3-3.8 2.5-5.2 1.4-1.3-1-2.8-.8-7.5 1.6-5.6 3-6 3-6.5 1s-1-2.2-4-1.2c-2.7 1-3.8 1-5.7-.8-1.3-1.3-2-3-1.6-4 1.7-4.2 1.6-6-.4-5.6-2 .4-2.2 2.5-1.3 9.6.5 3.3.2 3.5-3.3 3.6-2 0-4.7 1-5.8 2-1.2 1-2.5 1.6-3 1.2-.3-.4-.7.2-.7 1.5 0 2.8-2 5-4.8 5-1 0-2.6 1-3.3 2.3-1.4 2.6-7.6 6.3-9 5.3-.7-.4-1.4.4-1.8 1.7-.5 1.8-1.2 2-3.5 1.5-3.8-1-4 1.5 0 3 3 1 6 6.8 6 11.5.3 4-2.8 7-6 6.4-3.7-.8-13.7-1.4-15.2-.8-.8.3-1 2.5-.7 6 .4 3 0 6.6-.7 8-1.7 3.2.8 8.3 4.2 8.3 1.4 0 3 1 3.6 2 1 1.7 1.7 1.8 4 .7 1.4-.7 4-1.6 5.5-2 4.3-.8 7.3-3.4 7.6-6.5l.5-3.7c0-.4 2.2-2 4.7-3.2 3.5-1.7 4.7-3 4.7-5 0-3.7 2.6-5.8 6.5-5 2 .3 4 0 5.5-1 3.3-2.5 6-2 8.4 1.3 3 4.6 9.4 10.3 11.6 10.6 3 .4 6.2 5 5.4 7.6-.5 1.6-.3 2 .7 1.5 1-.6 1.2-2.2.8-4-.7-4 .2-5.2 2.3-3.4 1.2.8 1.7 1 1.7 0 0-.6-2.4-2.4-5.3-3.8-3.4-1.7-6-4-7.6-6.7-1.2-2.3-2.8-5-3.6-6-1.2-1.7-1-2.5.5-4 2-2 2-2 2.7 0 .5 1 1.2 1.6 1.7 1.2.6-.3 2 .8 3 2.3 1 1.5 4 4.4 6.8 6.5 3.5 2.5 5.5 5 6 7.3 1 4.2 6.2 11.2 8.4 11.2.8 0 1.2-.5.8-1.2-.4-.6-1.3-.8-2-.4-.8.5-1 .3-.4-.6.7-1 1.3-1 2.5 0 2 1.5 1.2 3.4-1.2 3.4-1 0-1.7.8-1.7 1.7 0 2.3.7 2.3 4.2 0s3.6-3.6.3-6.2c-2.2-1.8-2-5.5.2-4 .5.2 1.3-.3 1.6-1.2.5-1.3 2-1.6 5-1.3 3.6.3 5 0 6-2 1-1.4 1-2.6.3-3.5-1.6-2 3.7-12.5 8-15.6 2.8-2 4-2.4 5.8-1.3 1.8.8 2 1.5 1.2 2.6-1 1-.5 2 1.5 3 3.7 2 6.5.4 3.5-1.7-1.4-1.2-1.7-2-1-2.8 1.7-1.5 8.8-3.7 10-3 1 .7.7 3.3-1 5.4-1.2 1.5-.5 2.5 4.3 6 6.6 5.2 7.7 7.2 5.3 10-2 2.3-9 2.2-14.7-.5-5.2-2.2-7.5-2.2-11.3 0-1.6.8-4 1.6-5.3 1.6-1.4 0-2.8 1-3.2 2-.4 1-1.3 1.6-2 1.5-3.6-.4-4.2.3-4 4l.7 4 .4 1.3c0 1.2 1.7 3 2.8 3 .4 0 1.7.6 3 1 1 .6 2.5.5 3.2 0 .8-1 2.4-1 5 0 3 .8 5 .7 7-.3 4.2-2 4.5 0 1.7 10.3-2.7 10.3-5.4 13.4-10 11-2-1-3.7-1.2-6-.3-2.6 1-5 .6-11.8-2-12.8-4.6-12.7-4.6-16.2 2.8-1.4 3-4.4 2.6-11.7-2.2-4-2.6-8.2-4.7-9.3-4.7-1.2 0-3.2-1.2-4.5-2.4-1.8-2-2-3-1-4.6 1.4-2.8.3-7.7-2-8.6-.8-.4-4.5 0-8 .6-3.6.6-7.2 1-8 .5-1-.3-6 1-11.5 3-10.3 3.5-14 4-15 2-1.4-1.8-2.5-1-3.8 2.5-.7 2-3 4.3-5 5.5-3.2 1.8-4.3 4.7-3.6 8.8.4 2.5-3 8-5.8 9.4-1.8 1-5 4.5-6.8 8-2 3.4-4.2 6.5-5 6.7-2 .7-2.5 4-2.2 15 .2 6.7-.3 11.3-1.4 14-1.6 3.8-1.6 4.2.5 6 1.2 1.2 2.2 2.7 2.2 3.3 0 .6 2 3.4 4 6 2.4 3 4 6 4 7-.7 2.7 3.5 8 9 11.4 4.7 3 5.4 3.3 10.4 2 2.8-.7 6.6-1 8.3-.7 1.7.4 5.7-.3 9.3-1.6 3.5-1.3 7.5-2.4 9-2.4 2.5 0 6.5 3 7.4 5.6.3.8 1.5 1 4 .2 5.5-1.6 7.3 1 6.6 9-1 11.6-.7 14 2.4 17.4 2.7 2.8 5.2 7.8 5 9.5-.2.5.6 1.8 1.7 3 1 1.2 2 3.5 2 5 0 1.6.3 4.4.7 6 .5 2.2.2 4.7-1 7.2-1 2.2-2.5 6.5-3.2 9.7-1.2 5-1 6.3 1 10.7 2.7 6 3.6 9 4.4 15.5 1 8 3 13.7 7.6 22.6 5 9.6 5.3 11.3 2.8 12.3-2.7 1 4 6.6 7 5.7 1-.4 5.7-1 10-1.6 8.4-1 12-2.7 15.8-7.8 6-7.7 8.5-12.6 8.8-17.4.3-4.2 1-5.4 4.2-7.6 3.5-2.4 4-3 3.6-7.6-.2-2.8-1-6-1.5-7-1-1.8-.4-3 2.4-5.8 2-2 5-4.3 7-5.3 2.8-1.5 5.7-5 6.3-7.8l.4-1.7c1-3-.3-13.8-1.7-15.8-1-1.3-1.6-3.8-1.6-5.6 0-1.8-.5-4.2-1-5.3-2-3.8 7.3-19.5 15-25 2-1.7 5.4-5 7.2-7.3 4.3-5.8 11-20 11.6-24 .2-2 1.2-3.7 2.5-4.3 2.8-1 .2-.7-11 1.8-7 1.6-7.7 1.5-10.7-.6-1.8-1.4-3-2.8-2.6-3.4.3-.5 0-1.3-.6-1.7-.6-.5-2.4-3-4-5.5s-4-5.5-5.2-6.8c-1.2-1.2-2.3-3-2.3-4s-1-2.2-2.3-3c-1.8-1-2.3-2.3-2.3-6.6 0-3-.8-6.4-1.7-7.7-.8-1.2-1.8-3.6-2.2-5.2-.3-1.5-2.5-5.5-4.7-9-2.3-3.3-4-6.8-4-7.7 0-2.8 2.2-3 3.2-.4 1 2.3 1 2.3 1.8.3.8-2 1-2 3 .6 3 3.6 5.8 10 5.8 12.8 0 1.2.8 2.2 1.8 2.2 2.2 0 4 3.6 4 7.8 0 3.4 2 7 6.8 12 2 2.2 3 4.8 3.2 7.7.3 9.5 2.3 12.2 7 9.6 1.3-.5 6-3 10.8-5.2 4.8-2.3 10.3-5 12.4-6.3 4.2-2.3 12.4-9.3 11-9.4-.4 0 .3-1 1.7-2 1.4-1.2 2.3-2.5 2-3-.5-.3 0-1.6 1.2-2.8 1.8-2.2 1.8-2.4-2.8-5.3-2.7-1.8-5-4.3-5.5-6l-.7-3-1.7 2.6c-2 2.8-9 6-10.8 5-.6-.3-1-1.3-1-2 0-1-1-2.3-1.8-3-1-1-1.8-2.4-1.8-3.4s-1.7-4.2-3.6-7c-3-4.7-3.3-5.4-1.7-6.6 2.7-2 6.2-.7 8 3 2.8 5 8.4 8.5 13 7.6 3.4-.7 4.2-.4 4.7 1.5.8 3 4.5 4 16 4.2 8.2 0 9.2.4 11.4 3 1.4 1.8 4 3.5 5.6 4 4 1 5.2 2.5 2.7 3.5-1.3.5-1.5 1-.4 2.3 2 2.3 4 2 4.8-.8 1.2-4.4 3.2-1 3 5 0 3.4.2 7 .5 7.8l1.8 7.3c.8 3 2 5.8 2.5 6.2.6.3 1 1.6 1 2.7 0 1 1.8 5.5 4 9.7l4 7.7 2-2.8c2.5-4 4-9.7 4-16.6 0-5 .3-6.2 2.5-7.4 3.4-1.8 16.4-15 17.4-17.5.5-1.2 2-2 4.5-2 2 0 4.6-.7 5.8-1.8 2-1.7 2.2-1.6 4.3 2 1.3 2.2 3.5 5.2 4.8 6.8 2 2 2.4 4 2 7.8-.2 4 0 5 1.7 5 1 0 3-1 4.2-2.4 2.6-3 3-2.4 4.2 5.2.4 3.2 1.3 6.4 2 7 .5 1 .7 5 .4 9-.3 6.3 0 8 1.8 10.5 1.3 1.6 2.3 3.7 2.3 4.7 0 5.3 7.8 16.6 10 14.5 0-.2-.3-3.2-1-6.7-1-4-2.5-7-4.5-8.6-1.7-1.5-3.4-4-4-5.5-.4-1.6-1.5-3.4-2.4-4-1.4-1-1.4-2 0-7 1.6-5.3 2-5.7 5-5.4 5.2.6 6.3 1.2 6.3 3.5 0 1 1 2.7 2.3 3.5 1.4.8 2.4 2.7 2.4 4.4 0 3 0 3 5.8-2l5.8-5-.4-6.6c-.3-5-1.2-7.7-3.8-11.3-2-2.7-4-5.8-5-7-1.4-2-1-2.7 2.7-6.5 4-4 4.4-4 6.4-2.3 2 1.7 2.2 1.7 2.8.2.4-1 1.7-2 3-2 1 0 2.5-.4 3-1 .7-.7 3.5-1.5 6.2-2 4-.5 6-1.7 10-6 2.8-3 5.2-6 5.2-7 0-.7 1.3-3 3-5.2 3.3-4.5 3.5-6 .8-7-2-.8-2-1 .2-2.4 2-1.4 2-1.7.3-1.7-3 0-3.8-2.4-1-3 2-.7 2-1-1.3-5.8-3.3-5-3.4-5.4-1.5-8.2 1-1.7 3.6-3.7 5.6-4.7l3.6-1.6-5 .6c-5.4.6-10.6-1.7-10.6-4.5 0-2.5 10.8-9.8 12.4-8.5 1 1 1 1.8-.4 4-1 1.6-1.6 3-1.2 3.5.3.3 1.2-.5 2-1.8 1.3-2.6 4.6-3 8.2-1.2 1.7 1 2 1.7 1 3.3-1 1.8-.6 2.6 1.6 4s2.7 2.6 2.5 6.4c-.4 4.5-.3 4.5 2.6 3.3 5-2 5-2.6 2-10l-3-7.4 2.8-3 6.8-7.5c3.4-3.7 4.4-4.2 5.8-3 2.4 2 4.7.6 9.7-5.5 9.5-11.5 13-20.2 13.3-31.8 0-4-3-7.5-5-5.8-2 1.4-6.2 1.3-6.2 0 0-.6-1.2-1.6-2.7-2-2.3-1-2.4-1.3-1-3.5 1-1.4 6-6 11.3-10.5 9-7.7 14-9.8 16.7-7.2 1 1 9 .4 10.7-1 1-.8 2.3-.7 4 .3 3.5 2 11.7 2.2 10.2.4-1.7-2 9-10.4 13.5-10.7 3.7-.3 6 1.3 3.8 2.6-.6.3-1.2 1.5-1.2 2.5 0 1.5.6 1.5 2.8-.6 1.5-1.5 3.3-2.6 4-2.6.8 0 1.4-.8 1.4-1.6 0-2 3-4.6 4.6-3.7 1.6 1-2.5 8-5 8.6-1 .2-4.6 3.2-7.8 6.7-3.3 3.4-6.6 6.3-7.3 6.3-.7 0-2.2 1.5-3.3 3.3-2.3 3.8-2.5 12.3-.4 19l1.4 4.8 2.8-3.8c1.5-2 3.5-3.8 4.3-3.8 1 0 1.3-.5 1-1.2-1.3-2 2.7-7 4.8-6.4 1.2.5 1.5.2 1-1-.8-2.4 1.3-6.7 3-5.8.5.4 1 .2 1-.5 0-.6-.6-1.4-1.2-1.8-.6-.4-.8-1.3-.4-2 .4-.5 0-1.7-.5-2.5-1.5-2 2.8-9.3 5-8.5 1 .4 2.3 0 3-1 1-1 2-1.6 2.8-1.5.7 0 2.8-.2 4.6-.7 2.3-.7 3.8-.4 5 1 1.7 1.5 2.2 1.4 5.5-1 6-4.8 16-8.6 18.4-7.3 1.2.7 2.5.7 3 0 1.5-1.3-2-8.4-4-8.4s-4.5-3-3-4c.5-.3 2.3 0 4 .5 4 1.6 6.4.5 6.4-2.8 0-3.6 2.3-5 3-1.8 1 2.8 1 3 4 1.3 1.5-.8 2.5-.5 4 1.2 1.2 1 2.8 2.2 3.5 2.2.8 0 2 .7 3 1.7 1.5 2 4 2.3 2.7.4-.8-1.4 2.7-5.7 4.7-5.7.7 0 2-.6 2.6-1.4 1-1 .3-1.8-3.3-3.4-6-2.8-6.4-2.8-7.2.2-.7 2.8-3 2-3-1.3 0-5.3-15.2-12.5-28.2-13.5-5.2-.5-10.4-1.3-11.6-2-2-1-2-.6-1.4 2.5 1 4.5-.7 5.4-5.4 2.7-2.8-1.6-6-2-12-2-9.5.3-13.2-.8-13.2-3.8 0-3.3-2.5-4-13-3-7.4.5-9 .3-9.6-1.2-.4-1-1.4-1.5-2.2-1-1.6.4-3.5-1.6-3.5-3.8 0-2-4-2-8 .5-4.3 2.7-6.4 2-3.6-1 1.8-2 1.5-2-4.8-2-3.7 0-7.4-.3-8.3-.5-1.3-.3-1.8.7-2 3 0 2.8-.5 3.5-2.5 3.5-1.3 0-2.8.4-3.2.8-.4.4-2 0-3.7-.8-2.3-1.2-3.5-1.3-5.2-.2-1.6 1-2.7 1-4.3 0-1.8-1.2-2.2-1-2.7 1-1 4-4 3.7-10-1.6-5.7-5-6.3-6.7-2.3-6.7 2 0 2-.3 1-2s-2.8-2.2-7.3-2c-3.4 0-6.5.6-7 1.5-1.7 2-14 1.4-13.7-.7.4-1.8-10.3-2-12-.2-1 1-1.8.6-3-1.4-.7-1.5-1.4-3-1.4-3.5 0-1.7-1.4-2-5.3-1-3.3.8-3.5 1-1 1 2.7.3 8.5 3.7 6 3.7-.8 0-1.7-.6-2-1.2-.5-.6-2.2-1.2-4-1.2-2.8 0-2.8 0-.7 1.7 2.3 1.6 2.3 1.7 0 2.4l-4 1.7c-2.6 1.3-8.8 1-8.8-.4 0-.7 1.8-2 4-3 2-1.2 4.7-3 5.8-4 1-1 3-1.7 4.2-1.8 3.4 0 8-3 6.4-4-1-.5-1-1.2 0-2.6 1.4-1.6 1.3-1.8 0-1.3-1 .4-2.7 0-3.7-1-1.5-1.3-3-1.4-7.3-.4-3.3.7-6 .8-7.3 0l-4.5-1.7c-2.2-.7-2.2-.8-.2-2.3 2-1.3 1.8-1.5-1.2-2.2h-1.5zm-550.2 1s-.3 0-.5.2c-.6.4-.7 1.2-.4 1.8.4.6 1.2.7 1.8.4.6-.4.8-1.2.4-1.8-.3-.5-.8-.7-1.3-.6zM772 52s-.3 0-.4.2c-.7.4-.8 1.2-.4 1.8.3.6 1 .7 1.7.4.5-.4.7-1.2.3-1.8-.3-.5-.7-.7-1.2-.6zm-603 .7c-.3 0-.8.2-1.5 1-.8.7-2.6 1.3-4.2 1.3-1.5 0-4.7 1.7-7 3.7-3.3 3-3.7 3.5-1.6 3 1.4-.4 3 0 3.3.5.4.6 1.8-.5 3-2.5 1.8-2.7 2.7-3.3 4-2.3 1 1 1.8.5 3.2-1.4 1.4-2 1.6-3.4.8-3.3zm100.7 0l-1 .5c-.4.3.3.6 1.5.5 1.4 0 1.6-.3.7-.6l-1.3-.2zm481.5.5h-.5c-.6.5-.7 1.3-.4 2 .4.5 1.2.7 1.8.3.7-.4 1-1.2.5-1.8-.3-.4-.8-.6-1.3-.5zm52 0h-.4c-.6.5-.8 1.3-.4 2 .4.5 1.2.7 1.8.3.6-.4.7-1.2.4-1.8-.3-.4-.8-.6-1.3-.5zm-627 1l-.5.3c-.6.4-.7 1.2-.4 1.8.4.6 1.2.7 1.8.4.7-.4 1-1.2.5-1.8-.3-.6-.8-.8-1.3-.7zm119.2 0c-.2 0-.4.2-.5.3-.7.4-1 1.2-.5 1.8.4.6 1.2.7 1.8.4.6-.4.7-1.2.4-1.8-.3-.6-.8-.8-1.3-.7zM572 55.6c-.3 0-.5 0-.6.2-.6.3-.8 1-.4 1.7.4.6 1.2.8 1.8.4.6-.3.7-1 .4-1.7-.3-.4-.8-.6-1.3-.5zm349.3 0c-.2 0-.4 0-.5.2-.6.3-.8 1-.4 1.7.4.6 1.2.8 1.8.4.6-.3.7-1 .4-1.7-.3-.4-.8-.6-1.3-.5zm-694.8.8c-.8 0-1 .3-.7 1 .3 1 2.7 2 5.6 2.3 4.3.5 5.3 1 5.7 3.5.7 3 1.8 3.4 7.8 4 1.4 0 3 .6 3.5 1 .5.7 4.6.8 9 .5 4.5-.4 10-.7 12-.7 2.4 0 3.6-.5 3-1.3-.3-.6 0-2 1-3 1.2-1.8 1.2-2-.3-.8-1 .7-3 1.3-4.6 1.3-1.6 0-7.3.2-12.7.6-10 .5-15-1-15-4.4 0-.8-2-1.7-4.4-2-2.4-.4-6-1-7.7-1.5l-2-.4zm548 .3c-.3 0-.5 0-.6.2-.7.4-1 1.2-.5 1.8.3.6 1 .8 1.7.4.6-.4.8-1.2.4-1.8-.2-.4-.7-.6-1.2-.6zM693 57c-1.3 0-3.8.4-6.4 1.6-3.3 1.5-7 2.2-9 2-2-.4-5.8.3-8.7 1.5-3 1.3-6.7 2.3-8.7 2.3-2.8 0-3.3.3-2.2 1.3 1 1 .7 2.2-2 4.7-2.5 2.2-3 3.4-2 3.7 4 1.3 4.6 1.8 1.7 1.4-3.6-.5-4.3 0-7 4.4-2 2.7-2 3.2-.5 2.6 2-.7 5 2 4 3.6-.4.5 1.7 1 4.7 1s4.5 0 3.6-.4c-2.3-.8-4.6-3.8-4.6-6 0-2.5 9-12.5 13-14.6 2-1 4.4-1.7 5.5-1.7 2.3 0 15.3-4 18-5.6 2-1.2 2-1.8.6-1.8zm-502 .4c-.7 0-1 1-1 3 .3 2.6-.3 3.3-2.4 3.6-1.5.3-3.8-.3-5.2-1.2-1.4-1-4.7-2-7.2-2.5-4.5-.8-4.7-.7-4.7 2.2 0 2.8 2.2 4 3.5 2 .8-1.5 6.4 0 6.5 1.5 0 .6-1 1.5-2.6 2-2.4.6-2.2.7 1 .8 2 0 5-.5 7-1.2 1.7-.8 5.2-1.7 7.7-2 2.5-.5 4.7-1.4 5-2.2.3-1-.5-1.2-2-1-1.8.5-2.7-.2-3.5-2.3-.7-1.8-1.6-2.6-2.2-2.6zm22.5.2c-.7 0-1.4.2-2 .5-2 1-2 1.3.8 4.2 3.8 4.2 7.5 4.3 7.5.3 0-2.7-3.2-5-6.3-5zm-8.3.2c-.2 0-.4 0-.6.2-.6.3-.7 1-.4 1.7.4.6 1.2.8 1.8.4.6-.2.8-1 .4-1.6-.3-.5-.8-.7-1.2-.6zm725.4 0c-.2 0-.4 0-.5.2-.5.3-.7 1-.3 1.7.3.6 1 .8 1.7.4.6-.2.8-1 .4-1.6-.3-.5-.7-.7-1.2-.6zM213 59c.5 0 1.4.4 2 1 1 1 1 2 .3 2.4-.5.4-1.6 0-2.4-1-1-1-1-1.8-.3-2.2h.2zm678.7 1h-.4c-1.7.7-2.2 4.4-1 5.8 1.3 1.2 5 1 5.7-.3.4-.8 1.7-.8 3.6 0 4 1.5 4.5 1.4 2.8-.6-.7-1-1-2.4-.6-3 .4-.7.2-1.2-.4-1.2-.7 0-1.5.5-2 1.2-.4.8-1.6.6-3.5-.7-1.5-1-3.3-1.4-4.3-1.3zm-7.4.2c-1 0-1.8 1.6-1 3 .6 1 1.2 1 2 0 1-1 1-1.6 0-2.5-.3-.4-.7-.5-1-.5zm22 .6c-2.6 0-2.8.3-1.6 1.7 1.7 2 1.5 2 4 1 2.6-1 1-2.7-2.5-2.7zm-742.8.5h-.5c-.6.5-.8 1.3-.4 2 .4.5 1.2.7 1.8.3.6-.4.7-1.2.4-1.8-.3-.4-.8-.6-1.3-.5zm60.2 0h-.5c-.6.5-.8 1.3-.4 2 .3.5 1 .7 1.7.3.6-.4.8-1.2.4-1.8-.4-.4-.8-.6-1.3-.5zm-16.6 0v.2c-.8.4-.7 1.3 0 2.3 1 1 2 1.3 2.6 1 .6-.5.5-1.4-.3-2.3-.6-.8-1.5-1.3-2.2-1zm241 1l-.4.3c-.6.4-.8 1.2-.4 1.8.4.6 1.2.7 1.8.4.6-.4.7-1.2.4-1.8-.3-.5-.8-.7-1.3-.6zm467.4 1c-.6 0-.3.2 1 1 .8.6 3 1 4.5 1h2.8l-3-1c-1.5-.5-3.6-1-4.5-1h-1zm-712.6.3s-.3 0-.5.2c-.6.3-.7 1-.4 1.7.3.6 1 .8 1.7.4.6-.4.8-1.2.4-1.8-.2-.5-.7-.7-1.2-.6zm528.8 0c-.2 0-.4 0-.5.2-.5.3-.7 1-.3 1.7.3.6 1 .8 1.7.4.6-.4.8-1.2.4-1.8-.2-.5-.7-.7-1.2-.6zm-502 0h-.7c-.7 0-1.2.3-1.6.7-1 .8-.7 1.5.5 2.3 2 1.3 3.6 1 4.2-.8.4-1.2-1.2-2-2.7-2.2zm222 1l-.5.3c-.5.3-.7 1-.3 1.7.4.6 1 .8 1.7.4.7-.3.8-1 .4-1.7-.2-.4-.7-.6-1.2-.6zm103 1.3h-.6c-.6.4-.7 1.2-.4 1.8.4.6 1.2.8 1.8.4.6-.3.8-1 .4-1.7-.3-.5-.8-.7-1.2-.6zM883 68l-.4.2c-.6.4-.8 1.2-.4 1.8.4.6 1.2.7 1.8.4.6-.4.8-1.2.4-1.8-.3-.5-.8-.7-1.3-.6zm16.2.8c-.5 0-1 1-1 2.8 0 2.5.3 3 3.8 3 2.4 0 3.7-.6 3.3-1.3-.4-.6-1.5-1-2.4-1-1 0-2-1-2.5-2-.4-1-1-1.6-1.3-1.5zm-742.8 0c-2.7 0-6 1.5-6 3.2.5 4.4-.2 6-2.6 7-2 1-2 1-.6 1.2 1 0 2.6 1 3.4 2.2 1.4 2.4 4.6 2 6.8-.5.8-.8 2-1.5 3-1.5.8 0 1.5-.5 1.5-1.2 0-.6 1.5-2 3.4-3 4.3-2 6.2-2 2.3 0-1.6 1-2.3 1.8-1.7 1.8 2 0 4.4-2 4.7-3.8.4-2.4-3.4-4.4-7.4-4-1.7.2-3.8 0-4.6-.6-.6-.4-1.4-.5-2.3-.5zm542.8 1.5c-.2 0-.4 0-.5.2-.6.4-.8 1.2-.4 1.8.3.6 1 .7 1.7.4.6-.5.8-1.3.4-2-.2-.4-.7-.6-1.2-.5zm-461.2 0c-2.7.2-6 1-7 1.8-.6.6-.7 3-.3 5.3.7 3.5 1 4 2.5 2.8 1-.7 1.3-1.8 1-2.4-.4-.6.3-1.4 1.4-1.8 3-1 6.2-4 5.5-5 0-.5-1.4-.7-3-.6zm-15.4.4c-.5 0-1.3.2-2.6 1-1.7.8-3.8 1.5-4.7 1.5-1.2 0-1.3.4-.2 1.6 2 2.5-.3 3.6-3.6 2-3.4-2-1.5 0 4.3 4.4 2.6 1.8 5 3 5 2.3.3-.5 1.4-1 2.6-1 3 0 3.4-2.3.8-5-1.4-1.4-1.8-2.5-1-3.3.7-.6 1-1.8.7-2.7-.3-.5-.5-.8-1-.8zm491.6.7c-.2 0-.3 0-.5.2-.6.2-.8 1-.4 1.6.4.6 1.2.8 1.8.4.7-.3.8-1 .5-1.7-.3-.5-.8-.7-1.3-.6zm-514 .7c-.7 0-1 .6-1 1.4.2.7-.8 1.6-2.3 1.8-2 .3-2.7 1.2-2.7 3 0 3.4-2 5-3 2.5-.3-.8-2-2.4-4-3.3-2.8-1.4-3.3-1.4-4 0-.4 1.6-.8 1.6-2.4.3-1.6-1.2-2-1.2-3 .5-1.5 2.6-3.6 1.3-2.7-1.6.4-1.3.3-2.3 0-2.3-.7 0-7 3.4-9.6 5.2-.2 0 .2 1.6 1 3.4 1 3 1.4 3 6.6 2.5 5.6-.7 10 .7 9 2.6-.5.6-4.3 1.2-8.6 1.2-7.2 0-7.5.2-3.5 1.3 2.4.7 5 2 6.2 3.3 2.2 2.5 8.8 2 16.2-1 4-1.7 5.3-1.8 9.7-.5 2.8.8 6 2 7 3 1.4 1 1.4 1-.2-1-2-2.5-1.4-4 2.7-5.4 1-.4 0-.7-1.8-.7-2 0-4.5-.8-5.6-1.6-2.6-1.8-5.6-10.2-4.2-11.7 1.4-1.4 1.4-3 0-3zm73.2 0c-1.6 0-2.7.5-2.7 1.5 0 2.3 1.4 3.2 4 2.5 1.3-.4 3.4-.7 4.7-.7 2 0 2-.2-.6-1.7-1.8-1-4-1.5-5.4-1.5zm-20.7 1c-3.4 0-8.6 4.4-8.6 7.2 0 3.3 3.7 9 5.8 9.2l13.4.4c8 .3 13 1 16.2 2.4 2.5 1.2 5.5 2.2 6.7 2.3 3.6.3 5 2.4 3 4.8-1.4 2-1.3 2 .4.5 1.7-1.3 2.2-1 3.2.8.7 1.4 1.2 3.2 1.2 4 0 1.2 1 1.6 2.8 1.2 3.4-.6 4.8 1.2 2.4 3.2-1.4 1.2-2 1-3.8-.4-2-1.7-2.3-1.7-4.7 0-2 1.4-2.3 2-1.2 3.4.8 1 1 1.6.3 1.7l-6 .4c-4 0-5.4.7-5.7 2.2-.4 1.5.2 2 2.2 2 1.5 0 3.3-.4 4.2-1 1.7-1 10.6 2.6 10.6 4.4 0 .6 1.4 1.4 3 1.8 2.5.6 3 1 1.6 1.8-1 .7-.5 1 2 1 2-.2 5.5.8 8 2 5.8 3.2 5.8 3.2 3.3.4-2.2-2.3-2.2-2.4 0-3 3.8-1 2.6-5-3-10.5-5-5-5-5.2-3-6.8 3-2.2 3.4-2 7.7 2 3 2.6 4 3 5.3 2 1-.7 1.3-1.8 1-2.4-.5-.6.3-1.4 1.7-1.7 2.3-.6 2.3-.8.6-2.8-1-1-2.5-1.8-3.3-1.5-.8.3-2.4-.5-3.6-1.8-1-1.3-3.6-2.4-5.4-2.4-3.8 0-6.7-3.8-4-5.3 1-.6 1.4-1.5 1-2-1-1.6-7.5-4.6-8.8-4.3-.6.2-2 0-3-.5-1.6-.7-1.5-1 .5-2.4 1.8-1.4 2-1.7.3-1.7-1 0-2.2.4-2.6 1-.4.8-1.4.8-2.7.2-1-.6-2.4-1-3-1.2-.7 0-1.2-.6-1.2-1.3 0-2.3-4-4.2-7.5-3.7-2 .3-3.2 1-3 1.6 1.2 1.7-2.7 2.6-4.5 1-1-.7-2.2-1-2.8-.6-1.6 1-3-1.8-2.7-5 .3-2-.2-2.5-2.3-2.4-1.5 0-3.5.6-4.4 1.4-2 1.6-2.6 7.7-1 9.7.7 1 .6 1.6-.3 2.2-2 1.2-4.5-3-4.3-7.6v-4l1 4.5c.5 4 .7 4 1.3 1.8 1-4-1.2-8.3-4.3-8.3zm176 1.7c-.4 0-.7.2-.7.4 0 .3 1.2 1 2.6 1.6 3.4 1.3 3.5 1.3 2.8 0-.5-.7-3.3-1.7-4.6-2zm-6 7c.5 0 1 .2 1.2.7.3.6 0 1.4-.5 1.7-.6.4-1.4.2-1.7-.4-.4-.6-.3-1.4.4-1.7l.5-.2zm598 1.2s-.3 0-.4.2c-.6.4-.8 1.2-.4 1.8.3.6 1 .8 1.7.4.6-.4.7-1.2.4-1.8-.2-.4-.7-.6-1.2-.6zm-789.3.4c-.4 0-.8 0-1.2.3-4.2 2.2-4.3 8 0 8 3 0 3.4 1 1.6 4.7-2.2 4.4-3.3 5-6 3.2-1.8-1-3-1.2-5-.2-5 2.3-12.3 2.8-16.6 1-2.3-1-4-2.2-4-3 0-1.3-5.7-1.6-8.8-.4-1.5.6-1.6 1-.3 1.7 1 .7 2.4 1 3.3 1 1.2 0 1-.4-.5-1-2-.8-2-1-.4-1 3-.2 3.8 2.2 1 3-1.8.4-2.3 1.4-2 3.5.3 4-2.4 4.7-3.8 1-1.3-3.5-5.2-4.8-11.7-4-5.3.8-8.6-1.5-5-3.5 1.7-1 1.6-1.2-.7-2.4-2-1-3-1-4 0-1.3 1-2.7.7-5.6-.8-5-2.6-12.7-4-14.4-2.6-1 .8-2.5.5-5-.7-3-1.7-3.7-1.6-7.2.5-9.3 5.6-12.7 7-13.8 6-.6-.6.8-2 4-4 2.7-1.7 4.3-3 3.5-3-.8 0-3 1-5 2-3 2-4.2 2-5.6 1-1.5-1.2-1.5-1-.5.3 1.6 2.2 3 8.8 2 9.7-1.3 1.3-3.8-1.8-3.8-4.6 0-1.5-.4-2.8-1-2.8-1.8-.2-4.5-1-9.3-2.7-2.8-1-6.3-2-7.7-2-1.5 0-3-.5-3.4-1-.3-.6-3.7-1-7.6-1-3.8-.2-8-.8-9.2-1.4-1.6-1-3-1-4.5 0-1.7.8-2.6.6-3.6-.7-.8-1-3-1.8-4.7-1.8-1.8 0-3.6-.5-4-1.2-.5-.8-1.2-.8-2.3 0-1 1-1.8 1-2.3.2-.4-.8-1.6-.6-3.5.6-1.5 1-2.8 1.4-2.8 1 0-.7-.5-.4-1 .5-.6 1-2.5 2-4.3 2-1.7.4-4 1.8-5.4 3.4-1.2 1.6-2.5 2.7-3 2.3-.2-.3-2 .2-3.8 1L29 98l3.7 3c3.5 3.2 7 5.2 9.4 5.4 2.2.2 2 2.8 0 4-1.7.8-3.2.7-5.4-.5-2-1-4-1.3-5.2-.7-1 .6-3 1.4-4.2 2-2.3.6-2.3.7.2 1.6 1.6.5 2.4 1.6 2 2.5-1 2.5 10 3.5 11.7 1 1.8-2.2 3.8-1 3.5 2.3-.2 2.5-6 7-7.8 6-.4-.2-1.8.6-3.2 2-1.7 1.6-2.2 3-1.6 5 1 3.8 4 6.7 6.4 6 1-.2 2.5.4 3 1.3 1.4 2.6 8.8 5 11 3.8 2.4-1.4 3.4.5 2 4-1.2 3.2-5.6 6.6-12 9.3-2.6 1.2-4.3 2.3-4 2.6.5.5 6.6-2 10.2-4.2l5.8-3.3c4.7-2.4 11.7-9.2 11-10.4-.4-.5 0-1.5 1-2.3 1-.8 1.8-2 1.8-3 0-2.2 3.3-4.3 5.5-3.4 2 .7 2 .8 0 2.2-1.7 1.3-3 5.3-1.5 5.3 2.6 0 6.6-2.7 6-4-1-3 4-5 6-2.4 1.4 2 6.4 4 12.5 4.7 3.3.3 8.4 2 11.5 3.5 3.8 2 6 2.4 7 1.7 1-1 2-.4 3.2 1.6 1 1.6 2 3.2 2 3.6 0 1.2 5 5 6.6 5 2.4.2 5 8 3.5 10-.6 1 .2 2 2 2.7 3 1.3 3 1.3 1 4-1.2 1.3-1.4 1.8-.6 1 2.2-2 6.5.3 4.7 2.5-1.4 1.7-.4 3 2.3 3 3 0 12.7 9.6 12.7 12.5 0 2.7-1.8 4.3-3 2.6-1.5-2.6-2.2-1-2.3 6 0 4-.4 10.4-.6 14.2-.4 7.2 2.5 15.8 5 15.3.8 0 1.4 1 1.5 2.3.3 3.8 5 10.8 8.3 12 1.5.6 2.5 1.7 2 2.4-.4.7 0 1 1.4.8 1.7-.3 2.6 1 4.2 6 1.2 3.5 3.2 7.5 4.4 8.8 1.6 1.7 2 2.7 1 3.6-1 .8-.3 2 2.3 4.4 2 1.7 3.5 4.3 3.5 5.6 0 2.6 6.5 8.4 7.8 7 .4-.4 0-1.2-1.2-1.8-1-.7-2-1.7-2-2.4s-1.5-3.5-3.4-6.4c-2-2.8-3.5-5.5-3.5-6 0-.4-1-3-2.4-5.6-2-3.8-2.3-5.2-1.3-6.3 1.6-1.5 5 .5 5 3 0 1 2.3 4.8 5.2 8.6 3 4 5.2 7.6 5.2 8 0 .7 1.8 3 4 5.6 5 6 6.4 9 5.7 11.7-.8 3 3 6 15.5 12.3 8 4 10 4.5 11.7 3.4 1.8-1 3-.8 6.4 1.6 5.5 3.7 13 7.4 14.7 7.4 3 0 8 6 8 9.6 0 3 .2 3.2 1.7 2 1.4-1.2 2-1 3 1.3.7 1.7 2.3 2.8 4.2 3 1.6 0 3.6.7 4.3 1.3.8.7 1.7.4 2.6-1 3-5 8.3 2.3 8.2 11.4 0 4-1 6.2-4 10-2 2.5-4.4 7-5.2 10.2-1.3 5-1.2 5.6.7 6.7 2 1 2 1.2-.4 3l-2.5 2 3.8 8.6c2 4.7 5 12.5 6.6 17.2 2.3 7.3 3.4 9 7 11.6 2.5 1.8 6.4 4.8 8.7 6.8l4 3.8-1.3 20-1.8 26.3c-.2 4-1.3 8.4-3.4 12.5-2.3 4.5-3 7.2-2.5 9.7.4 2 0 5.2-.7 7.3-1 3-1 4.4 0 6.5 1.7 3.2 1.2 15.4-.7 17.3-1 1-1.5 1-2-.7-.7-1.6-1-1.7-2-.5-1 2-1 3.7 0 3 1.4-.8 7.5 6 6.7 7.3-.4.6-1.4 1-2.3.5-1.2-.4-1.4.7-1.2 5 .3 3-.2 6.2-1 7-1 1.3-.8 1.6.5 1.3 2.4-.4 8.2 3.8 7.5 5.6-1 3 1.2 1.7 2.6-1.3.8-1.6 2-3 2.6-3 .6 0 1.2-1 1.2-2.6 0-1.5 1-3.7 2.3-4.8 1.4-1.3 2.2-2.5 2-2.8-.4-.3 1-2.4 3-4.6 3.4-4 3.4-4 1-5-4.6-1.7-4.2-10.3.6-10.3 1 0 1.6-1.3 1.6-3.6 0-2.6.6-3.7 2.3-4.2 2-.5 2-.8.7-2-1-.6-2-2.2-2-3.5-.4-2 .2-2.3 3-2.3 3 0 4.4-1.2 5.7-5.5.3-1.3 2.3-2.2 6.4-2.7 9.5-1.3 11.7-5.4 6.4-11.8-3.5-4-2.8-5.3 1.7-2.8 3 1.7 3.6 1.7 7.3 0 4-2 7-6 13-18.2 2.5-5 3-6.7 2-8.8-.7-1.4-1-3-.5-3.8 1-1.4 9-7.2 10.2-7.2.4 0 1.3-.8 2-1.7.7-1 3.4-2 6-2.2 4.3-.3 4.5-.6 7.6-7.7 2.7-6 3.3-9.2 3.4-17 0-6.6.5-9.7 1.5-10.3.8-.5 3.4-3.8 5.7-7.2 5.6-8.2 6-14.2 1-17-2-.8-4.2-2.6-5-3.8-1.2-1.6-3.4-2.3-8.7-2.6-6-.5-7.6-1-10.8-4.3-4.4-4.3-6.5-4.5-9.5-.6-1.7 2-3.2 3-5.4 2.6-3.7-.4-3.6-2.4 0-3.3 1.5-.3 3-1.5 3-2.6.7-2.8-1.4-2.3-5.8 1.6-2.2 2-4.3 3-4.6 2.7-1.4-1.2 6-11 7.5-10 .8.4.4-.4-1-2-1.2-1.3-2-2.8-2-3.2 1.4-4.2-6.2-10.5-12.6-10.5-3.3 0-5-1-8.4-4.4l-7-7c-1.6-1.5-2.6-3.3-2.2-4 .5-.7-1.3-.8-5.2-.3-3.7.5-6 .3-6.6-.4-.4-.7-1.3-1.2-2-1-2.4.3-7.8-2.4-8-4 0-.7-.4-.2-1 1.2s-1.5 2.6-2 2.6c-.7 0-1 1-.7 2.3.8 3-1.7 4-3.2 1.2-1-2-1-3 .6-5.2 2.4-3.6.6-3.6-2.8 0-1.5 1.5-3.4 2.5-4.2 2.2-1.5-.6-2 .3-4.6 7.6-.5 1.3-1.3 1-3.5-1-2.6-2.5-3.3-2.6-7.5-1.5-4.4 1.2-4.7 1-7.6-2.3-2.8-3.3-3-4.2-2.3-10.7.6-7 .6-7.2-2.5-8-1.8-.6-5-1-7.3-1-3.8 0-4-.4-3.7-3.6.2-2 .8-4 1.3-4.8.5-.6 1.3-3.3 1.7-6 .6-4.4.5-5-1.5-5-5 0-8 2-8.4 6-.4 3.5-.8 4-5.5 4.7-6.4 1-9.5-.8-12.7-7.5-2.3-4.7-3.2-14.7-1.5-16.4.4-.4.7-2.5.5-4.6-.3-3.4.2-4.2 4-6.6 5.2-3.2 6.5-3.5 10.6-2.2 1.6.6 4.8 1.3 7 1.7 3.4.6 3.7.5 2.3-1.2-1.3-1.5-1.2-2 .7-3.4 1.5-1 3.3-1.4 5.2-1 1.6.6 4.3 1 6 .8 3.5-.2 6.5 3.5 7 8.7.6 4 3.3 8.5 5.2 8.5 2 0 1.8-1.5-1-11-1-4.4-2.2-8.8-2.2-9.6 0-1 2.8-4.5 6.2-8 3.4-3.3 6-6.4 5.7-6.7-.3-.4.3-1 1.4-1.3 1-.4 1.6-1.2 1.3-1.7-.4-.5 0-1.3.6-1.7.8-.5.7-1.5 0-3-1.5-2.7-1-8.6.5-8.6.6 0 1.4 1.3 2 3 .5 2.3.7 2.4.8.5.2-3.6 5.7-11 8.2-11 4.3 0 5.8-1.2 4.4-3.5-1-1.6-1-2.7.7-5 1-1.7 2.6-3 3.6-3s4.2-1.3 7.2-2.8c3.7-2 6.2-2.4 7.8-1.8 1.3.5 1.6 1 .6 1-2.3 0-6 3.6-6 5.7 0 1.5.7 1.4 2.8-.5 1.4-1.3 4.2-3 6.2-3.8 2-.8 4-2.2 4.4-3 .3-1 1-1.5 1.8-1 .6.3 1 0 1-.5 0-2.3-1.3-2-4 .6-2.3 2.3-3.2 2.6-4.6 1.5-1-.8-1.3-2-.8-2.7.6-1 .3-1-1 0s-2.2.6-4.7-2c-3.3-3.3-3.2-4.5.4-4.5 1.2 0 2-.8 2-1.8 0-3-7.6-1.2-11.6 2.6-2.2 2.2-3.6 2.8-4.4 2-1.7-1.7 8.2-10.3 13-11.3 2-.4 6-.7 9.2-.7 3.2 0 7-.6 8.3-1.4 1.5-.7 4.2-1.6 6-2 3-.7 3.5-1.3 3.5-4.6 0-5-1.4-6-6.6-4.2-3 1-4.7 1.2-5.2.3-1-1.6 2.7-4.4 6-4.5 1.6 0 1.8-.3.5-.7-1-.4-3-1.7-4.7-2.8-1.7-1.2-3.3-2-3.6-1.5-.3.3-1.5-.8-2.5-2.4-1-1.5-1.6-2.8-1-2.8.3 0-.5-1.2-2-2.7-1.3-1.5-2.7-4.2-3-6-1-5.2-1.6-5.5-5-1.8-2 2-4 3.3-5 3-1-.5-2.2-.2-2.7.5-.5 1-1.6.5-3.2-1.3-2.8-3-3.5-5.4-2-6.3 1.8-1 1.4-4-.4-4-.8 0-3-1.4-5-3.2-2.5-2.4-4.5-3.2-8.8-3.3-5.2-.2-5.7 0-7 3.4-1 2.4-1.2 4.4-.5 5.8.6 1.3.5 2.6-.4 3.7-.8 1-1 1.8-.5 1.8s.3.7-.4 1.5c-1 1.2-.7 2.3 1 4.6 3 3.5 3 7.4.3 11.2-1.4 1.8-2 5.3-2.2 9.7-.2 5-.7 7-2.2 8.2-1.8 1.3-2.7 1-6.6-2.8-4.2-4-4.5-4.7-4-9l.4-5-5-.4c-3.5-.4-7.4-2-11.5-5-3.5-2.2-6.8-3.8-7.4-3.5-1.4 1-3-1.4-3-4.5 0-1.7-.7-2.2-2.6-2-2 .3-3-.4-3.8-2.6-1.6-4.2-.2-7 7.2-14.8 1.8-2 3-3.8 2.6-4.4-.8-1.3 3.6-3.5 5.6-2.8 1 .4 2.8-.4 4.4-1.6 3-2.5 3.2-2.3-3.5-4.4-3-1 .6-3 4.7-2.5 3.6.3 4 .6 4.2 4.6.3 3.2 0 4.6-1.4 5-1.5.6-1.2 1.2 1.3 2.5 3 1.7 3.4 1.6 5.5-1 2-2.8 2.3-3 4.8-1.3 1.5 1 3.2 1.4 3.8 1 2-1-3.8-6.3-7.7-7-2-.5-4.4-2-5.4-3.6-2-2.7-1.7-3 2.5-2.7 2.7.2 9.6-3 9.6-4.4 0-.6-.7-2-1.6-3.2-1.2-1.6-1.3-2.7-.4-3.7 1.6-2-2-4.7-6.4-4.8-2.8 0-3 .3-2 2 .7 1.7.2 3-2 6-3 3.6-3 3.7-4.6 1.7-.8-1.2-1.5-3.3-1.5-4.7 0-1.4-1-3-1.8-4-1.3-1-2-.7-3.6 1.7-2 3.2-4 3-4-.4 0-1.2-1-2.4-2.5-2.8-1.8-.5-2-1-1-2.2 1.7-2.2-2.5-7-5.6-7zm26 .3c-.4 0-.6.4-.6 1 0 .7.6 1.2 1.2 1.2.7 0 1-.5.6-1-.4-.8-1-1.3-1.3-1.3zm753.8.4c-2.3 0-5.3 1-6.4 2-1 1 5 .8 9.6 0 .2 0 0-.7-.4-1.4-.3-.5-1.4-.7-2.8-.6zm-875.5 1.2h-.5c-.6.5-.7 1.3-.4 2 .4.5 1.2.7 1.8.3.6-.5.8-1.3.4-2-.3-.3-.8-.5-1.3-.4zm342.5 0h-.5c-.6.5-.8 1.3-.4 2 .4.5 1.2.7 1.8.3.7-.5.8-1.3.5-2-.3-.3-.8-.5-1.3-.4zm-3.5 2.3h-.5c-.6.4-.8 1.2-.4 1.8.4.6 1.2.8 1.8.4.6-.4.8-1 .4-1.8-.3-.4-.8-.6-1.3-.5zm192.3.3c-.5 0-1 0-1.2.3-.8 1-.5 1.8 1 3 2.7 2 3.8 2 4.7.5 1-1.3-2.5-3.7-4.5-3.7zm-114.8.7s-.3 0-.5.2c-.6.4-.7 1.2-.4 1.8.4.6 1.2.7 1.8.4.7-.4 1-1.2.5-1.8-.3-.4-.8-.6-1.3-.6zm-331 2.5c-.4 0-1 .6-1.8 1.5-1.8 2-1.8 2.3 0 3 1 .3 1.4 1 1 1.7-.4.7.7.7 3 0 2-.5 4.2-1.6 4.7-2.5.8-1 1-1 1 0s-.7 1.8-1.7 2.2c-1 .3-1.4 1-1 1.7 1 2 2.6 1.2 4.4-2.5l1.8-3.6-3.7.6c-2.4.5-4.2.2-5.5-1-1-.8-1.4-1.2-2-1zm419 1c-1.8-.2-4.3 2.6-3.4 4 .6 1 1.5 1 3 0 2.5-1.2 3-2.8 1-4h-.7zm-292.6.7c-1 0-1.5.5-1 1 .3.8 1 1.3 1.7 1.3.6 0 1-.5 1-1.2 0-.6-.7-1-1.7-1zm-74.2.5h-.5c-.7.5-1 1.3-.5 2 .4.5 1.2.7 1.8.3.6-.4.7-1.2.4-1.8-.3-.4-.8-.6-1.3-.5zm-148 1.8c-.5 0-1.8.5-2.8 1.2-1 .6-1.2 1-.6 1 .7 0 2-.4 3-1 1-.7 1-1.2.5-1.2zM542 96h-.5c-.6.5-.8 1.3-.4 2 .3.5 1 .7 1.7.3.6-.4.8-1.2.4-1.8-.2-.4-.7-.6-1.2-.5zm-267.2 2.3c-.2 0-.4 0-.5.2-.5.3-.7 1-.3 1.7.3.6 1 .8 1.7.4.6-.3.8-1 .4-1.7-.2-.6-.7-.8-1.2-.7zm262.6 0c-.2 0-.4 0-.5.2-.6.3-.8 1-.4 1.7.4.6 1.2.8 1.8.4.7-.3.8-1 .5-1.7-.3-.6-.8-.8-1.3-.7zm-254 2h-.5c-3 .6-3.4 3.3-.5 3.3 1.4 0 2.4-.7 2.4-1.8 0-1-.6-1.5-1.5-1.5zm14 6.8c-1.2 0-2 .6-1.6 1.2.4.7 1 1.2 1.7 1.2.6 0 1.4-.5 1.7-1.2.4-.6-.3-1-1.7-1zm158 1.6c-.8 0-2 0-3.7.3-3 .4-6.5.7-7.6.6-1.2 0-2 .3-1.5 1 1 1.3-4.7 4.6-8.3 4.7l-3.3.2 3.4.7c2 .4 3.2 1.2 3 1.8-.8 1 2.8 2.8 6.4 3 1.4 0 5.3-1.2 8.7-2.6 7-2.8 8.7-4.5 6.2-6-1-.4-1.7-1.6-1.7-2.6s-.4-1.2-1.8-1.2zm-18.7.8c-1.2 0-2.7.4-3.8 1-1.4 1-1 1.3 1.3 1.3 1.8 0 3.5-.5 4-1.2.3-.7-.4-1-1.5-1zm90.3 8.6h-.5c-.6.5-.8 1.3-.4 2 .3.5 1 .7 1.7.3.6-.4.7-1.2.3-1.8-.2-.4-.7-.6-1.2-.5zm-223 3.2c1.7 0 6 2 6.8 3.2.4.6.3 1.2-.2 1-1.6 0-7.5-3.4-7-4l.5-.2zm-286.3.2h-1l-.6.3c-.6.3-.5 1.4.3 2.3 1.5 1.8 7.6 1.7 7-.2-.2-1-3.6-2.3-5.8-2.4zm264 0c-.2 0-.3 0-.5.2-.6.4-.8 1.2-.4 1.8.4.6 1.2.7 1.8.4.6-.4.7-1.2.4-1.8-.3-.5-.8-.7-1.3-.6zm-4.6 1.2c-.3 0-.5 0-.6.2-.6.3-.8 1-.4 1.7.4.6 1 .8 1.7.4s.8-1.2.4-1.8c0-.5-.6-.7-1-.6zm-4.4 3.3c-.3 0-.6 0-1 .5-.6.7-1 2-.4 3.2.5 1.5 1 1.7 2 .8.7-.7 1-2.2.5-3.3-.3-1-.7-1.3-1-1.3zm-9 0c-1.5.2-3.4 2-2.7 3.2.3.6 1.6.5 3-.3 1.6-1 2-1.7 1-2.6-.3-.3-.8-.4-1.3-.4zm215.8 1.2c-1 0-1.6 1.2-1 2.5.2 1 0 2-.7 2.3-.6.4-.8 1.2-.4 1.8.4.6 1.2.7 1.8.3.7-.2 1-.8.6-1.2-.3-.3 0-1.3.6-2.2.7-.8 1-2 .5-2.7-.2-.5-.6-.7-1-.8h-.3zm107.3 4h.7c1.4.2 3 1 3.7 2.4 1.8 3 1.6 4-.3 3.2-.8-.3-2-.2-2.6.4-.4.6-1.4-.2-2.2-1.8-.7-1.5-1-3-.7-3.4.5-.4 1-.6 1.7-.7zm-91.2 3c-1 0-1.8 1.6-1 3 .7 1 1.3 1 2.2 0 1-.8 1-1.6 0-2.5-.4-.4-.8-.5-1.2-.5zm-189.7 1c-.2 0-.3.2-.5.3-.6.4-.8 1.2-.4 1.8.3.6 1 .7 1.7.4.6-.4.7-1.2.4-1.8-.2-.6-.7-.8-1.2-.7zm250 0c-.3 0-.4.2-.6.3-.6.4-.8 1.2-.4 1.8.4.6 1.2.7 1.8.4.6-.4.7-1.2.4-1.8-.3-.6-.8-.8-1.3-.7zM28 136.6h-.4c-.6.5-.7 1.3-.4 2 .4.5 1.2.7 1.8.3.6-.4.8-1.2.4-1.8-.3-.4-.8-.6-1.3-.5zm463 4.6c-.5.2-1.8 1-3.6 2.8-3.6 3.4-5.5 8-3.6 9 .6.5.6 1.3 0 2-1 1.6 1.8 5 4.3 5 1 0 2 1.3 2 3.2.3 2.4-.2 3.5-2.2 4.2-1.3.6-2 1-1.5 1 .6.2.4 1-.4 2-1.3 1.4-1.2 1.7.8 1.7 4 0 4.2 2.2.4 3.7-5 1.8-4.6 3.2.4 1.8 2.3-.6 4.7-1 5.5-1 5.5.8 8.4-.6 9.6-4.4.6-1.8.3-2.5-1-2.5-2 0-3-1.2-3.6-4.8-.5-2.4-4.4-7.6-7.2-9.4-1-.7-1-1.6.6-4 2-3 2-3-.6-2.3-3.7 1-4.3-1-1.5-4.5 2-2.4 2.4-3.5 1.7-3.4zm-450 2.4c-.3 0-.5 0-.6.2-.6.4-.8 1.2-.4 1.8.3.6 1 .7 1.7.4.6-.4.8-1.2.4-1.8-.2-.5-.6-.7-1-.6zm438.3 0s-.3 0-.5.2c-.6.4-.7 1.2-.4 1.8.4.6 1.2.7 1.8.4.6-.4.8-1.2.4-1.8-.3-.5-.8-.7-1.3-.6zm83.3 0s-.3 0-.5.2c-.5.4-.6 1.2-.3 1.8.4.6 1.2.7 1.8.4.6-.4.8-1.2.4-1.8-.4-.5-1-.7-1.4-.6zM69.4 145c-1.8 0-7 3.5-7 4.8 0 .5.4 1.2.8 1.6 1 1 7.5-5 6.7-6.3h-.2-.4zm44.4 2h-.6c-.6.4-.7 1.2-.4 1.8.4.6 1.2.8 1.8.4.6-.3.8-1 .4-1.7-.3-.5-.8-.7-1.2-.6zm365.5 1s-.3 0-.5.2c-.6.4-.7 1.2-.4 1.8.4.6 1.2.8 1.8.4.6-.4.8-1.2.4-1.8-.3-.4-.8-.6-1.3-.6zm71.8 0c-1 0-1.7 1.7-.8 3 .5 1 1 1 2 0 1-.8 1-1.5 0-2.4-.4-.4-.8-.5-1-.5zm-532 3.5c-.3 0-.5 0-.6.2-.6.4-.8 1.2-.4 1.8.3.6 1 .7 1.7.4.7-.5.8-1.3.4-2 0-.4-.6-.6-1-.5zm42.7 1.2h-.5c-.6.5-.8 1.3-.4 2 .4.5 1.2.7 1.8.3.6-.4.7-1.2.4-1.8-.3-.4-.8-.6-1.3-.5zm210.6 1l-.6.3c-.6.4-.7 1.2-.3 1.8.3.6 1 .7 1.7.4.7-.4 1-1.2.5-1.8-.3-.5-.7-.7-1.2-.6zm-150 1.6h-.4c-1.2.4-1.6 2.6-.8 4.2.2.4.8.5 1.4.2 1.2-.7.7-4.2-.4-4.4zm-63 .8c0 .2-.3.2-.4.3-.7.4-1 1.2-.5 1.8.3.7 1 1 1.7.5.6-.4.8-1.2.4-1.8-.2-.4-.7-.6-1.2-.6zm908.3 0l-.5.3c-.5.4-.7 1.2-.3 1.8.4.7 1 1 1.8.5.6-.4.7-1.2.3-1.8-.2-.4-.7-.6-1.2-.6zm-436.2 1.4c-1 0-1.8 1.5-1 3 .7 1 1.2 1 2 0 1-1 1-1.6 0-2.5-.3-.5-.6-.7-1-.6zm9.3 1c-.2 0-.4 0-.5.2-.6.4-.8 1.2-.4 1.8.3.6 1 .8 1.7.4.6-.4.8-1.2.4-1.8-.3-.4-.8-.6-1.3-.6zm-63.6.3c-.5 0-1 .4-1.4 1-.7.7-1 1.7-.4 2.2.4.3-.4 1-1.8 1.4-2 .5-2.3 1-1.4 2 1 1.2 1 2 0 2.4-1 .6-1.7 5.2-.8 5.2.2 0 2.5-1 5-2.3 4-2 5-3 5.3-6.3.4-3.2 0-4.2-2-5-1-.5-1.8-.8-2.4-.7zm-442 1h-.4c-.6.5-.8 1.3-.4 2 .3.5 1 .6 1.7.3.5-.4.7-1.2.3-1.8-.2-.5-.7-.7-1.2-.6zm868.6.6c-.7 0-1 .4-.7 1 .2.6-.3 2.7-1.3 4.7-1.6 3-1.6 4.2-.4 7.3 1 2 1.4 7.2 1.3 12.4-.2 7.4 0 9 1.5 9 1 0 2-.7 2-1.5 0-1-.7-2-1.3-2.3-1.3-.8-1.6-6.7-.4-8 .4-.4 1.5 0 2.3.6 1.7 1.4 2.2-.2.6-2-1.8-2.2-3.8-13-3-17.2.5-2.8.4-4-.6-4zm69.8.5h-.5c-.7.5-1 1.3-.5 2 .3.5 1 .7 1.7.3.6-.3.8-1 .4-1.7-.2-.4-.7-.6-1.2-.5zm-945.7 1c-1.2 0-2.3 1-1.7 2 .4.6 1.2 1 1.7 1 1.7 0 2.5-2 1.2-2.8l-1.3-.3zm94 .2c-1 0-1.7 1.6-.8 3 .5 1 1 1 2 0s1-1.6 0-2.5c-.4-.4-.8-.5-1.2-.5zm-99.3 3.4c-.2 0-.4 0-.6.2-.6.3-.7 1-.4 1.7.4.6 1.2.8 1.8.4.6-.3.8-1 .4-1.7-.3-.5-.8-.7-1.2-.6zm965 1l-.7.3c-.6.4-.7 1.2-.4 1.8.4.6 1.2.8 1.8.4.7-.5 1-1.3.5-2-.3-.3-.8-.5-1.2-.5zm-720.7.2c-.3 0-.6 0-1 .4-.8 1-.7 1.8.3 3 2 2.5 3.8 1 2.3-1.8-.6-1-1-1.6-1.6-1.6zm-143.4 2c-.4.3 0 2.2.8 4.3.8 2 1.6 3 1.8 2.5.2-.5-.2-2.4-1-4.2-.5-1.6-1-2.7-1.5-2.7zm815.4 7.3c-1 0-1.8 1.4-1 3 .6.8 1.2.8 2 0 1-1 1-1.7 0-2.6-.3-.4-.7-.5-1-.5zm-801 2.3c-.6 0-.8.3-.6.6.5.5 1.8 1 3 1s2.8 1 3.4 2.3c.7 1.2 1.8 2.3 2.5 2.3 2 0-4.2-5.5-7-6l-.8-.3h-.6zm202.5 0c-1 .3-3.3 1.5-5.8 3.8-4.2 4-4.6 4.6-3 6.6 1.4 2 3.6 2 9.4 0 1.4-.7 1.8-.5 1.2.5-.5.8-.6 2.4 0 3.5.6 1.8.7 1.8 2-.2 1-1.3 2-1.6 2.4-.8.5.7 1.3 1 2 .5.5-.3.7-1 .3-1.7-.4-.6-1.2-.8-2-.4-.6.4-.8-.2-.3-1.6 1-3.2-3-6.6-6.5-5.5-2.7.7-2.7.7-.7-1.6 2-2.2 2-3 1-3zm-92.6 1.7c.6 0 1 .5 1 1 0 .7-.4 1.3-1 1.3-.7 0-1.2-.6-1.2-1.2 0-.5.5-1 1.2-1zm71.7 1.5c-.4 0-.7 0-1 .2-1.7.7-1.7 1 .3 2.4 2.6 2 5 2.2 6 .7.7-1.4-3-3.4-5.3-3.2zm617 0l-.5.3c-.6.3-.7 1-.4 1.7.4.6 1.2.8 1.8.4.6-.4.8-1.2.4-1.8-.3-.5-.8-.7-1.3-.6zm-3.4 3.6c-.3 0-.5 0-.6.2-.6.4-.8 1.2-.4 1.8.3.6 1 .8 1.7.4.6-.4.8-1.2.4-1.8 0-.4-.6-.6-1-.5zm-682.7 1.3c.6 0 1.3.3 2.2.7 1.7.8 3.8 3 4.8 5 1.5 3.3 2.7 4 7.2 5 3 .5 5.6 1.6 6 2.4.2.8-.2 1.3-1 1-1 0-1.8 1.3-2.2 3.3-.7 3.4-.8 3.4-2.2.8-.7-1.4-1.8-2.4-2.3-2-.6.3-.8-.4-.5-1.6.4-1.5-.2-2.8-1.7-3.6-2-1-2.6-.7-4.4 2-1 1.7-2.3 5.5-2.6 8.3-.4 3.3-1 4.7-1.6 3.7-.5-.8-.8-2.8-.6-4.6.2-1.7 0-3.6-.4-4.3-1-1.6 1.6-4.8 4.3-5.4 6.7-1-3.5-5.5-11.2-4.8-4.3.5-4.6.4-2-.7 1.6-.7 4-2.3 5.3-3.6 1.4-1.3 2.2-1.8 3.3-1.7zm30.8 3.2c.5 0 1 0 1.3.3 1.3.8.4 3-1.2 3-.4 0-1.2-.6-1.6-1.2-.6-1 .5-2 1.7-2zm648.4.2c-.2 0-.4 0-.5.2-.7.2-1 1-.5 1.6.4.6 1.2.8 1.8.4.6-.3.7-1 .4-1.7-.3-.5-.8-.7-1.3-.6zm-591.2 1l-.5.3c-.6.4-.8 1.2-.4 1.8.4.6 1.2.8 1.8.4.7-.4.8-1.2.5-1.8-.3-.4-.8-.6-1.3-.6zm308.5 2.5c2 0 2.3.6 2.3 2.7 0 2-.5 2.5-1.6 2-1-.3-2.3.2-3 1-.8 1-1 1.8-.6 1.8.5 0 .3.7-.4 1.5-1 1.2-.7 2.3 1.5 4.6 1.4 1.5 2.4 3.2 2 3.5-.3.3-.2 1.5.2 2.7.8 2 1 2 2.3 0 1.3-1.7 1.5-1.7 2.8.4 1.2 2 1 2.2-1 2.2-3 0-4 2-1.4 3.4 1 .6 1.6 1.2 1.2 1.2-.4 0-.3 2 0 4.6 1 4 .7 4.6-1.5 5.2-4.5 1.2-7.2.7-9.4-1.7-2-2.3-2-2.7-.3-7.6 1.5-4.4 1.6-5.4.3-6-2.2-.8-6.6-12.8-5.7-15.5.8-2.6 6.8-6 11.2-6.2h1zm-374.4 1c.5 0 1 .2 1.2.7.4.5.2 1.3-.4 1.7-.5.3-1.3.2-1.6-.4-.4-.6-.3-1.4.3-1.8l.6-.2zm650.2 0c-.2 0-.4.2-.5.3-.6.4-.8 1.2-.4 1.8.3.6 1 .7 1.7.4.6-.4.8-1.2.4-1.8-.3-.6-.7-.8-1.2-.7zm-252.5 2c1.5 0 1.2 5-.4 6.7-1.8 1.8-2.8 1.6-3.7-.7-.8-1.8 2-6 4-6zm248.6 1.4c-1.3 0-2.3 1-1.7 2 .3.7 1 1.2 1.6 1.2 1.6 0 2.5-2 1.2-3l-1.2-.2zm-18.5.4c-.7.4-1 1.7-1 4 0 2.2-.7 3.4-1.7 3.4-2.5 0-3.2 1.8-1.8 5.2 1 3 4.3 3.5 3.7.7-.2-1 .5-1.2 2-.8 1 .4 2.7 0 3.5-1 .8-1 2.2-1.8 3-1.8 2 0 4.4-4.2 3-5-.7-.5-2-.5-2.8 0-1 .2-3-.8-4.4-2.4-1.5-1.7-2.7-2.4-3.4-2.2zm14.4 2c-.2 0-.4.2-.5.3-.7.3-1 1-.5 1.7.3.6 1 .8 1.7.4.6-.3.8-1 .4-1.7-.3-.5-.7-.7-1.2-.6zM282 203.4h.4c.3 0 .4.2.3.4-.4 1-2.4 2-4.5 2.7-2 .6-5.7 2.5-7.8 4-2.2 1.8-4.6 3-5.4 3-2.3 0 3-3.6 11-7.7 3-1.5 5.2-2.3 6-2.4zm631.2 1.4c-.2 0-.3 0-.5.2-.6.3-.8 1-.4 1.7.4.6 1.2.7 1.8.4.7-.3.8-1 .5-1.7-.3-.5-.8-.7-1.3-.6zm-388.7 3.6c-1 0-1.8 1.5-1 3 .6 1 1.2 1 2 0 1-1 1-1.6 0-2.5-.3-.4-.7-.5-1-.5zm372.6 7c-1.2 0-2.2 1-2.4 2.8-.8 7-1.5 8.5-3 7-1-.7-2-.8-2.4 0-.4.6-.2 1.4.5 1.8 1 .6.8 1.3 0 2.4-1.2 1.3-2 1.4-3 .4-1.3-1-2-.7-2.7 1.6-1 2.2-2 3-6 3.5-3.2.4-6 1.6-7.7 3.6-2 2.3-3.2 2.8-4.3 2-2.6-2.3-3 0-.5 3.4 1.3 2 2 4 1.6 4.6-.3.6-.4 2 0 3 1 2.8 3 1.7 5-3 1.2-3.2 2.3-4.3 3.7-4 1 .4 2.7-.2 3.5-1.2 1.3-1.4 1-2-1.2-2.8-2.8-1-2.8-1-.2-1.2 1.5 0 3 1 4 2.5 1.2 2.5 1.3 2.5 3 .3 1.4-1.5 3.5-2.3 6.6-2.3h4.6l1.8-7c1-4 2-7.6 2.6-8 1.4-1.5 1-7-.6-8.3-1-.7-2-1-2.7-1zm-372.7.8c-.7.2-1.4 1-1.4 2.6 0 2.2.4 2.8 1.7 2.2 1-.3 1.7-1.4 1.5-2.4-.3-1.6-1-2.3-2-2.3zm-12.3 1.5h-.4l-.6.3c-.8.5-1.8 1-2.3 1-.4 0-.8.3-.8.8v1.5c0 .5.5.3 1.3-.2s2-1 2.3-1c.5 0 1.2-.3 1.6-.4.3 0 .3-.7 0-1.3-.3-.3-.8-.5-1.2-.5zm-8.4 4.6l-.5.3c-.5.3-.6 1-.3 1.7.4.6 1.2.8 1.8.4.6-.3.8-1 .4-1.7-.4-.5-1-.7-1.4-.6zm35.5 4.2c-4 0-4.4 1.5-.8 3.3 3.8 1.8 4.4 1.6 4.4-1 0-1.8-.8-2.3-3.5-2.3zm18 .5c-.3 0-.5 0-.6.2-.6.3-.8 1-.4 1.7.3.6 1 .7 1.7.4.6-.3.8-1 .4-1.7 0-.5-.6-.7-1-.6zm-24.4 3.5c-.2 0-.4 0-.5.2-.5.3-.7 1-.3 1.7.3.7 1 1 1.7.5.6-.3.8-1 .4-1.7-.2-.5-.7-.7-1.2-.6zm41.6 0s-.3 0-.5.2c-.6.3-.8 1-.4 1.7s1.2 1 1.8.5c.7-.3 1-1 .5-1.7-.3-.5-.8-.7-1.3-.6zm-5.8 1c0 .2-.3.2-.5.3-.7.4-.8 1.2-.5 1.8.4.6 1.2.8 1.8.4.6-.4.8-1.2.4-1.8-.3-.5-.8-.7-1.3-.7zm24.3 3.3c-.5 0-1 0-1.5.4-.7.3-1 1-.6 1.7 1 1.4 3.7 1.4 4.6 0 .7-1-1-2.2-2.5-2.2zm-54.3.3c-.2 0-.4 0-.6.2-.6.4-.7 1.2-.4 1.8.4.6 1.2.7 1.8.4.6-.4.8-1.2.4-1.8-.3-.5-.8-.7-1.2-.6zm-4.7 1.2h-.5c-.6.5-.8 1.3-.4 2 .4.5 1.2.7 1.8.3.6-.4.8-1.2.4-1.8-.3-.4-.8-.6-1.3-.5zm35.6.8c-.4 0-.7 0-1 .3-.3.5.4.7 1.6.7 1.2 0 1.5-.3.6-.7-.5-.2-1-.2-1.3-.2zm288.4 6c-.2 0-.4.2-.5.3-.6.5-.8 1.3-.4 2 .3.5 1 .6 1.7.3.6-.4.8-1.2.4-1.8-.3-.5-.8-.7-1.3-.6zM314 245.3c-.3 0-.5 0-.6.2-.6.4-.8 1.2-.4 1.8.4.6 1.2.7 1.8.4.6-.4.7-1.2.4-1.8-.3-.5-.8-.7-1.3-.6zm136.4 1.2s-.3 0-.5.2c-.7.3-1 1-.5 1.7.4.6 1.2.8 1.8.4.6-.3.8-1 .4-1.7-.3-.5-.8-.7-1.3-.6zm412 0c-.3 0-.5 0-.6.2-.6.3-.8 1-.4 1.7.4.6 1.2.8 1.8.4.6-.3.7-1 .4-1.7-.3-.5-.8-.7-1.3-.6zm-414.3 14h-.4c-.6.4-.8 1.2-.4 1.8.4.6 1.2.8 1.8.4.6-.4.7-1.2.4-1.8-.3-.4-.8-.6-1.3-.5zm10.5 1s-.3 0-.5.2c-.6.4-.8 1.2-.4 1.8.4.6 1.2.7 1.8.4.6-.4.8-1.2.4-1.8-.3-.5-.8-.7-1.3-.6zm407.3 0c-.2 0-.4 0-.5.2-.6.4-.8 1.2-.4 1.8.2.6 1 .7 1.6.4.6-.4.8-1.2.4-1.8-.2-.5-.7-.7-1.2-.6zm-413 1.2c-.2 0-.4 0-.6.2-.6.3-.7 1-.4 1.7.4.6 1.2.8 1.8.4.6-.5.8-1.2.4-2-.3-.3-.8-.5-1.3-.4zm-177 2.3h-.6c-.6.4-.8 1.2-.4 1.8.4.6 1.2.8 1.8.4.6-.3.8-1 .4-1.7-.3-.5-.8-.7-1.3-.6zm172.3 0h-.4c-.6.4-.8 1.2-.4 1.8.4.6 1.2.8 1.8.4.6-.3.7-1 .4-1.7-.3-.5-.8-.7-1.3-.6zm-167.6 1c-.2 0-.4 0-.6.2-.6.4-.7 1.2-.4 1.8.4.6 1.2.8 1.8.4.6-.4.8-1.2.4-1.8-.3-.4-.8-.6-1.2-.6zm581 .3c-1.6 0-3.3 2.4-2.4 4 .6 1 1.4.7 2.7-.6 1.3-1.3 1.5-2.2.6-3-.3-.3-.6-.4-1-.4zM653 269.5c-.3 0-.5 0-.6.2-.6.4-.8 1.2-.4 1.8.4.6 1.2.7 1.8.4.6-.5.7-1.3.4-2-.3-.4-.8-.6-1.3-.5zm-377.3 1.2h-.5c-.6.5-.8 1.3-.4 2 .4.5 1.2.7 1.8.3.6-.4.8-1.2.4-1.8-.3-.4-.8-.6-1.3-.5zm5.8 0h-.5c-.6.5-.8 1.3-.4 2 .4.5 1.2.7 1.8.3.6-.4.7-1.2.4-1.8-.3-.4-.8-.6-1.3-.5zm572.7 2.3c-.2 0-.4 0-.5.2-.6.3-.8 1-.4 1.7.4.5 1.2.7 1.8.3.7-.3.8-1 .5-1.7-.3-.5-.8-.7-1.3-.6zM278 274c0 .2-.3.2-.5.3-.6.4-.7 1.2-.4 1.8.5.7 1.3 1 2 .5.5-.4.7-1.2.3-1.8-.3-.4-.8-.6-1.3-.6zm5.8 0c0 .2-.3.2-.5.3-.6.4-.8 1.2-.4 1.8.3.7 1 1 1.7.5.6-.4.8-1.2.4-1.8-.2-.4-.7-.6-1.2-.6zm565.8 0l-.5.3c-.5.4-.7 1.2-.3 1.8.3.7 1 1 1.7.5.6-.4.8-1.2.4-1.8-.2-.4-.7-.6-1.2-.6zm-7.2.4l-1 .5c-1.5 1.3-2 7-.7 8.3 1 1 1 1 2-4.8.3-3 .3-4.2-.3-4zm-561 3.2l-.4.2c-.6.4-.8 1.2-.4 1.8.4.6 1 .8 1.7.4.5-.3 1.3 0 1.7.6.4.7 1.2 1 1.8.5.7-.3.8-1 .4-1.7-.3-.6-1-.8-1.6-.4-.6.2-1.3 0-1.8-.7-.3-.5-.8-.8-1.3-.7zm-16 2c-1.8 0-3.2.5-4.6 1.5-2.2 1.7-2.2 1.8.6 2.8 1.6.6 2.8 1.5 2.6 2-.6 1.4-.2 2 1 1 .8-.4.8-1-.2-2.2-1-1.2-1-1.7 0-1.7 1.8 0 14 5.8 13.8 6.7v1.6c.3 1.5 6.8 1 8.2-.7 1-1.3-.5-2.5-8-6.4-6.3-3-10.4-4.6-13.4-4.6zm24.2 1.5c-.2 0-.3.2-.5.3-.5.3-.7 1-.3 1.7.4.6 1.2.8 1.8.4.6-.3.7-1 .4-1.7-.4-.5-1-.7-1.4-.6zm-241.8 1.2c-.2 0-.4 0-.5.2-.6.4-.8 1.2-.4 1.8.3.6 1 .8 1.7.4.6-.4.7-1.2.4-1.8-.2-.4-.7-.6-1.2-.6zm246.4 0s-.3 0-.5.2c-.6.4-.7 1.2-.4 1.8.4.6 1.2.8 1.8.4.7-.4 1-1.2.5-1.8-.3-.4-.8-.6-1.3-.6zM52 284.4c-1.2 0-2.3 1-1.7 2 .4.7 1.2 1.2 1.7 1.2 1.7 0 2.5-2 1.2-3-.4-.2-.8-.2-1.2-.2zm240 1.3c-.2 0-.4 0-.6.2-.6.3-.8 1-.4 1.7.4.6 1.2.7 1.8.4.6-.3.8-1 .4-1.7-.3-.5-.8-.7-1.3-.6zM57 287h-.5c-.7.5-.7 1.3 0 2.2.8.8 1 1.8.6 2-.2.5-.2 1.4.2 2 1 1.7 2.6 1.6 3.6 0 .5-.8 0-2-1.3-3-1.2-.8-1.7-1.5-1.2-1.5.4 0 .5-.5 0-1.2-.2-.5-.8-.7-1.3-.6zm752.5 4c-1 .2-2 .8-2.4 1.8-.4 1.3 0 1.7 1.3 1.5 1-.2 2-1 2.4-1.8.4-1-.3-1.5-1.2-1.4zM294.8 293c-1.8 0-3 .2-2.5.8.3.5-.4 1.3-1.6 1.7-3.2 1.3 4 2.5 8.2 1.3 1.8-.5 3.7-.6 4.3-.3.5.4 1 0 1-.5 0-.6-1.5-1.5-3.2-2-2-.6-4.4-1-6.2-1zm15.2 2c-1.2 0-2.3 1-1.7 2 .4.7 1.2 1.2 1.7 1.2 1.7 0 2.5-2 1.2-3-.4-.2-.8-.2-1.2-.2zm-32 1c-.5 0-1 0-1.5.4-.7.4-1 1.2-.6 1.8.8 1.5 3.6 1.4 4.5 0 .7-1-1-2.2-2.5-2.2zm564 .2c-1.6 0-2 1.2-2.6 5.7-.8 6.4.2 8.3 4.6 9.5 3 .7 7 6.6 5.4 8.2-.4.5 0 .5.7 0 1-.4 1.2-1.4.7-2-.5-1 0-.8 1.2 0 4 3.4 1.6 0-4-5.7-6.3-6.3-6.6-7-4-9 2.8-2.5 2.2-6.4-1-6.6h-1zm-527 1.3s-.3 0-.4.2c-.6.3-.8 1-.4 1.7.3.6 1 .8 1.7.4.5-.3.7-1 .3-1.7-.3-.6-.7-.8-1.2-.7zm-57.8 1l-.5.3c-.6.4-.8 1.2-.4 1.8.4.6 1.2.8 1.8.4.7-.4 1-1.2.5-1.8-.3-.4-.8-.6-1.3-.6zm62.5 0l-.5.3c-.6.4-.8 1.2-.4 1.8.4.6 1.2.8 1.8.4.6-.4.7-1.2.4-1.8-.3-.4-.8-.6-1.3-.6zm4.6 1.3s-.3 0-.5.2c-.6.3-.8 1-.4 1.7.4.6 1.2.8 1.8.4.6-.4.8-1.2.4-1.8-.3-.5-.8-.7-1.3-.6zm103 2.3h-.5c-.6.5-.8 1.3-.4 2 .4.5 1.2.6 1.8.3.6-.4.7-1.2.4-1.8-.3-.5-.8-.7-1.3-.6zm7 1l-.6.2c-.6.4-.7 1.2-.4 1.8.4.6 1.2.8 1.8.4.7-.4 1-1.2.5-1.8-.3-.4-.8-.6-1.3-.5zm-110 1.2s-.3 0-.5.2c-.6.4-.8 1.2-.4 1.8.4.6 1.2.7 1.8.4.6-.4.8-1.2.4-1.8-.3-.5-.8-.7-1.3-.6zm587.7 1.2s-.3 0-.5.2c-.6.3-.7 1-.4 1.7.5.6 1.3.8 2 .4.5-.3.7-1 .3-1.7-.3-.5-.8-.7-1.3-.6zm61.4 1l-.5.3c-.7.4-1 1.2-.5 1.8.3.6 1 .8 1.7.4.6-.5.8-1.3.4-2-.2-.3-.7-.5-1.2-.5zm-543.8 1.3c-.2 0-.4 0-.5.2-.5.2-.7 1-.3 1.6.4.6 1.2.8 1.8.4.6-.3.7-1 .4-1.7-.4-.5-1-.7-1.4-.6zm4.6 0s-.3 0-.5.2c-.6.2-.7 1-.4 1.6.4.6 1.2.8 1.8.4.7-.3 1-1 .5-1.7-.3-.5-.8-.7-1.3-.6zm-108.7 1l-.5.3c-.6.4-.8 1-.5 1.7.3.5 0 1.3-.6 1.7-.7.4-1 1.3-.6 2 .4.5 1.2.6 1.8.3.6-.4.8-1 .5-1.7-.4-.5 0-1.3.5-1.7.7-.4 1-1.3.5-2-.2-.3-.7-.5-1.2-.5zm526.4 0l-.6.3c-.6.4-.8 1.2-.4 1.8.4.6 1.2.8 1.8.4.6-.4.7-1.2.4-1.8-.3-.4-.8-.6-1.3-.6zm56.6 1.3c-.2 0-.4 0-.5.2-.5.4-.7 1.2-.3 1.8.3.6 1 .7 1.7.4.6-.4.8-1.2.4-1.8-.2-.5-.7-.7-1.2-.6zM330 313.5s-.3 0-.4.2c-.6.3-.8 1-.4 1.7.4.6 1.2.8 1.8.4.6-.3.7-1 .4-1.7-.3-.4-.8-.6-1.3-.5zm511.5 0c-1 0-1.8 1.6-1 3 .6 1 1.2 1 2 0 1-.8 1-1.5 0-2.4-.3-.3-.7-.5-1-.5zm-537 1c0 .2-.2.2-.4.3-.5.4-.6 1.2-.3 1.8.4.6 1.2.8 1.8.4.6-.4.8-1.2.4-1.8-.4-.4-1-.6-1.4-.6zm456 0l-.5.3c-.6.4-.8 1.2-.4 1.8.4.6 1.2.8 1.8.4.6-.4.7-1.2.4-1.8-.3-.4-.8-.6-1.3-.6zM309.3 316c-.2 0-.4 0-.5.2-.6.3-.8 1-.4 1.7.3.6 1 .8 1.7.4.7-.2 1-1 .5-1.6-.2-.5-.7-.7-1.2-.6zm341.3 0c-.2 0-.4 0-.5.2-.5.3-.7 1-.3 1.7.3.6 1 .8 1.7.4.6-.2.8-1 .4-1.6-.2-.5-.7-.7-1.2-.6zm-327.4 1l-.5.3c-.6.5-.8 1.3-.4 2 .3.5 1 .7 1.7.3.6-.4.8-1.2.4-1.8-.3-.4-.7-.6-1.2-.6zm514.8 0l-.5.3c-.6.5-.8 1.3-.4 2 .5.5 1.3.7 2 .3.5-.4.6-1.2.3-1.8-.3-.4-.8-.6-1.3-.6zm-77.5 2.5h-.5c-.6.5-.8 1.3-.4 2 .4.5 1.2.7 1.8.3.6-.4.7-1.2.4-1.8-.3-.4-.8-.6-1.3-.5zm84.4 0h-.6c-.6.5-.7 1.3-.4 2 .4.5 1.2.7 1.8.3.6-.4.8-1.2.4-1.8-.3-.4-.8-.6-1.3-.5zm-518.4 1l-.5.3c-.5.4-.6 1.2-.3 1.8.4.6 1.2.7 1.8.4.6-.4.8-1.2.4-1.8-.4-.5-1-.7-1.4-.6zm-32 1h-.2c-.3.4-.3 1.5 0 2.6.5 1 1 1.6 1.5 1.3.2-.4 0-1.5-.3-2.6-.4-1-1-1.5-1.2-1.4zm541 1c-1 0-3.8 5-3.8 6.4 0 1.5 1.3 0 3-3 1-2 1.3-3.4.7-3.4zm19.8.4c-.2 0-.4 0-.5.2-.7.3-1 1-.5 1.7.3.6 1 .8 1.7.4.6-.3.8-1 .4-1.7-.3-.4-.7-.6-1.2-.6zm-63.7 1.2h-.5c-.6.4-.7 1.2-.4 1.8.4.6 1.2.8 1.8.4.6-.3.8-1 .4-1.7-.3-.5-.8-.7-1.3-.6zm142.3 3.4h-.5c-.6.5-.7 1.3-.4 2 .5.5 1.3.7 2 .3.5-.4.7-1.2.3-1.8-.3-.5-.8-.7-1.3-.6zm48.6 0h-.5c-.5.5-.7 1.3-.3 2 .4.5 1.2.7 1.8.3.6-.4.8-1.2.4-1.8-.4-.5-1-.7-1.4-.6zm-127.7.8c-.8 0-2 .5-3.8 1.5-2.3 1.2-3.2 1.3-3.2.3 0-1.6-3.5 2.6-3.5 4.2 0 .6.8.4 1.7-.3 2-1.7 4-.8 4 1.5 0 2.4 2.6 2.8 4.7.7 1-1 1.6-3 1.3-5-.3-2-.5-3-1.4-3zm-128.7.3c-1 0-1.6 1-2 3-.6 4.8 1.2 6.8 4.3 4.8 1-.7 1.2-1.7 0-4.6-.6-2-1.5-3.2-2.3-3.2zm-21.3 1.2c-.2 0-.4 0-.6.2-.6.2-.7 1-.3 1.6.4.6 1.2.8 1.8.4.6-.3.8-1 .4-1.7-.3-.5-.7-.7-1.2-.6zm221 0c-.2 0-.4 0-.6.2-.6.2-.7 1-.4 1.6.4.6 1.2.8 1.8.4.6-.3.8-1 .4-1.7-.3-.5-.8-.7-1.3-.6zm4.6 1l-.5.3c-.5.4-.7 1.2-.3 1.8.3.6 1 .8 1.7.4.6-.4.8-1.2.4-1.8-.3-.4-.7-.6-1.2-.6zm-50.6 3.5c-.3 0-.6.2-1 .5-.6.7-1 2.2-.4 3.3.5 1.4 1 1.7 2 .7.7-.7 1-2 .5-3.2-.2-1-.6-1.4-1-1.3zm-175 0l-.6.3c-.6.4-.7 1.2-.3 1.8.4.6 1.2.7 1.8.4.6-.4.8-1.2.4-1.8-.3-.6-.7-.8-1.2-.7zm59 1.3h-.5c-.6.5-.8 1.3-.4 2 .4.5 1.2.7 1.8.3.6-.4.8-1.2.4-1.8-.3-.4-.7-.6-1.2-.5zm134.2 0h-.5c-.6.5-.8 1.3-.4 2 .3.5 1 .7 1.7.3.6-.4.8-1.2.4-1.8-.2-.4-.7-.6-1.2-.5zm19.6 0h-.5c-.6.5-.7 1.3-.4 2 .3.5 1 .7 1.7.3.6-.4.8-1.2.4-1.8-.2-.4-.7-.6-1.2-.5zm-88.2 1l-6.3 6c-3.5 3.6-7 6.4-8 6.4s-2 1-2.3 2c-.3 1.3-1.8 2.5-3.3 2.7-2.3.3-2.7 1-2.4 3.8.2 2 1.8 5.5 3.6 8 2.6 4 3.6 4.8 7.2 4.8 2.3 0 4.5.4 5 .8.5.6 1.5.5 2.3 0 .7-.8 1.7-1 2-.5.5.4.6-.8.2-2.8-.5-2-.2-3.8.5-4.3.8-.4 2-2.6 3-4.8 1-2.2 2.3-4 3-4 1 0 1-.4 0-1.6-.8-1-1-2.2-.8-2.8.4-.6-.4-1.4-1.8-1.7-2.5-.7-2.5-.7.7-4l3.2-3-3-2.6-3-2.6zm10.7 1.3s-.3 0-.5.2c-.6.3-.8 1-.4 1.7.4.6 1.2.8 1.8.4.6-.3.8-1 .4-1.6-.3-.5-.8-.7-1.3-.6zm73 0c-.3 0-.4 0-.6.2-.6.3-.8 1-.4 1.7.4.6 1.2.8 1.8.4.7-.3.8-1 .5-1.6-.3-.5-.8-.7-1.3-.6zm-207.2 1c0 .2-.2.2-.4.3-.6.5-.8 1.3-.4 2 .4.5 1.2.7 1.8.3.6-.4.7-1.2.4-1.8-.3-.4-.8-.6-1.3-.6zm254.6 1.3l-.5.3c-.5.3-.6 1-.3 1.7.4.6 1.2.8 1.8.4.6-.3.8-1 .4-1.7-.4-.5-1-.7-1.4-.6zm-191.3 1l4.6 5.8c2.5 3.2 4.6 6.7 4.6 7.8 0 1 1.3 3.2 3 4.7 1.5 1.5 2.8 3.5 2.8 4.5 0 2.3 9.4 13 11 12.4.6-.2 1.3-1.6 1.5-3 .2-1.6 1-3.6 1.5-4.3 1.3-1.8 0-4.3-1.5-3.3-1.3.8-8-5.3-7.3-6.6.3-.3-2.3-3.5-5.7-7-3.4-3.3-6.4-6.7-6.7-7.5-.2-.8-2-2-4.2-2.5l-3.7-1zm-64.3 2.6h-.6c-.6.5-.7 1.3-.3 2 .4.5 1.2.7 1.8.3.6-.5.8-1.3.4-2-.3-.3-.7-.5-1.2-.4zm99.5 1l-.6.3c-.7.3-.8 1-.5 1.7.4.6 1.2.7 1.8.4.6-.3.8-1 .4-1.7-.3-.5-.8-.7-1.2-.6zM521 346h-.5c-.6.4-.8 1.2-.4 1.8.5.6 1.3.8 2 .4.5-.4.6-1 .3-1.8-.3-.4-.8-.6-1.3-.5zm248.7 2.2s-.3 0-.5.2c-.6.3-.7 1-.4 1.7.4.7 1.2 1 1.8.5.6-.3.8-1 .4-1.7-.3-.5-.8-.7-1.3-.6zm92.6 0c-.2 0-.4 0-.5.2-.6.3-.8 1-.4 1.7s1.2 1 1.8.5c.6-.3.7-1 .4-1.7-.3-.5-.8-.7-1.3-.6zm-343.6 2.3c-.2 0-.4 0-.5.2-.6.4-.8 1-.4 1.8.4.6 1.2.7 1.8.3.6-.3.7-1 .4-1.7-.3-.4-.8-.6-1.3-.5zM241 352.8s-.3 0-.5.2c-.6.4-.8 1.2-.4 1.8.5.6 1.3.7 2 .4.5-.4.7-1.2.3-1.8-.3-.5-.8-.7-1.3-.6zm620.4 1c-1.2 0-1.7 1.2-1.6 4 .2 4.3 1.5 3.8 2.7-1 .5-2.2.3-3-1-3zm-87 .2c-.2 0-.4 0-.5.2-.7.3-1 1-.5 1.7.3.5 1 .7 1.7.3.6-.4.8-1 .4-1.8-.2-.4-.7-.6-1.2-.5zm210.5 0c-.2 0-.4 0-.6.2-.6.3-.7 1-.4 1.7.4.5 1.2.7 1.8.3.6-.4.8-1 .4-1.8-.3-.4-.8-.6-1.3-.5zm-135.5 1h-3c-3.6.2-7 .8-7.6 1.4-2 2-4 13.5-2.5 15 .7 1 1 2.2.6 2.8-.5 1 1.6 6 2.6 6 .2 0 0-2.2-.4-4.7-1.4-8.8 2.3-10.8 4-2.2 1 4.8 3 5 3.2.5 0-2.3-1-4.3-2.8-6-3.4-2.8-2.4-5.6 1.7-4.5 1.6.4 2.7 0 2.7-.6 0-.8-1.7-1-4.2-1-3 .3-4.5 0-4.8-1.2-.8-2.4 3-4.7 6.7-4 1.8.4 4.2.2 5.3-.4 1.2-.6.8-1-1.5-1zm-334.3 0l-.5.3c-.6.4-.8 1.2-.4 1.8.4.7 1.2.8 1.8.5.7-.4 1-1.2.5-1.8-.3-.4-.8-.6-1.3-.6zm351.7 2.4c-.2 0-.4 0-.6.2-.6.4-.7 1.2-.4 1.8.4.6 1.2.8 1.8.4.6-.4.8-1.2.4-1.8-.3-.4-.8-.6-1.3-.6zm-626 1.2s-.3 0-.5.2c-.6.4-.8 1-.4 1.7.5.7 1.3.8 2 .4.5-.4.7-1.2.3-1.8-.3-.5-.8-.7-1.3-.6zm729 0c-.3 0-.5 0-.6.2-.6.4-.8 1-.4 1.7s1.2.8 1.8.4c.6-.4.7-1.2.4-1.8-.3-.5-.8-.7-1.3-.6zm-733.6 0c-1 0-1.8 1.6-1 3 .6 1 1.2 1 2 0 1-.8 1-1.5 0-2.4-.3-.4-.7-.5-1-.5zm9.2 1.2h-.5c-.5.5-.6 1.3-.3 2 .4.5 1.2.7 1.8.3.6-.3.8-1 .4-1.7-.4-.4-1-.6-1.4-.5zm625.7 1c-1.8.2-.5 2 3 3.3 3 1 3 1.4 1.3 2.7-1.2.8-1.6 2-1 3 .6 1 1.2 1 1.7 0 1-1.6 12 4 14.2 7.7 1.7 2.5 1.6 3-.4 5.2-1.7 2-1.7 2.4 0 1.8 1-.3 3.6.3 6 1.6 4.6 2.5 9 3 8.4.8 0-.7 1-2 3-2.5 2.4-1 3.5-.7 5.4 1 1.3 1 2.3 2.8 2.3 3.6 0 .8 1.8 2 4 2.5 6 1.8 6.2 1.5 2-2-2.2-2-4-4.7-4.2-6.2l-.4-3.3c-.2-1.8-13.3-9.6-20.4-12.2l-7.8-2.8-2.7 2.5c-2.6 2.5-2.8 2.5-5 .5-1.2-1-2-2.7-1.6-3.6.5-1.7-.2-2-6-3.3-.7 0-1.3-.2-1.7 0zm116 0l-.6.3c-.6.5-.7 1.3-.4 2 .4.5 1.2.6 1.8.3.7-.4 1-1.2.5-1.8-.3-.5-.8-.7-1.2-.6zM779 362.2l-.5.2c-.6.4-.8 1.2-.4 1.8.5.6 1.3.8 2 .4.5-.4.6-1.2.3-1.8-.3-.4-.8-.6-1.3-.5zm104 0l-.4.2c-.6.4-.8 1.2-.4 1.8.4.6 1.2.8 1.8.4.6-.4.8-1.2.4-1.8-.3-.4-.8-.6-1.3-.5zm18.6 0l-.5.2c-.5.4-.6 1.2-.3 1.8.4.6 1.2.8 1.8.4.6-.4.8-1.2.4-1.8-.4-.4-1-.6-1.4-.5zm22 0l-.5.2c-.5.4-.7 1.2-.3 1.8.4.6 1.2.8 1.8.4.6-.4.8-1.2.4-1.8-.4-.4-1-.6-1.4-.5zm-56.7 0c-1 .2-2 1.7-1 3.2.6 1 1 1 2 0s1-1.6 0-2.6c-.3-.3-.7-.5-1-.5zm-354 1.2c-.3 0-.5 0-.6.2-.6.4-.8 1.2-.4 1.8.4.6 1.2.7 1.8.4.6-.4.7-1.2.4-1.8-.3-.4-.8-.7-1.3-.6zm292.6 0c-.2 0-.3 0-.5.2-.5.4-.7 1.2-.3 1.8.4.6 1.2.7 1.8.4.6-.4.7-1.2.4-1.8-.4-.4-1-.7-1.4-.6zm108.8 0c-.2 0-.4 0-.5.2-.7.4-1 1.2-.5 1.8.3.6 1 .7 1.7.4.6-.4.8-1.2.4-1.8-.3-.4-.7-.7-1.2-.6zm-62.5 1.2c-.3 0-.5 0-.6.2-.6.3-.8 1-.4 1.7.4.6 1.2.8 1.8.4.6-.3.7-1 .4-1.7-.3-.5-.8-.7-1.3-.6zm4.5 0s-.3 0-.5.2c-.6.3-.8 1-.4 1.7.4.6 1.2.8 1.8.4.6-.3.8-1 .4-1.7-.3-.5-.8-.7-1.3-.6zm134.2 0s-.3 0-.5.2c-.6.3-.8 1-.4 1.7.4.6 1.2.8 1.8.4.6-.3.8-1 .4-1.7-.3-.5-.8-.7-1.3-.6zm4.7 1l-.6.3c-.6.4-.7 1.2-.4 1.8.4.6 1.2.8 1.8.4.6-.5.8-1.3.4-2-.3-.3-.8-.5-1.2-.5zm-192 1.3c-.3 0-.5 0-.6.2-.6.2-.8 1-.4 1.6.4.7 1.2.8 1.8.4.6-.3.7-1 .4-1.7-.3-.5-.8-.7-1.3-.6zm127.2 0c-1 0-1 1.4.3 3.7 1.2 2 2.2 2.5 3 1.7.8-.7.5-1.8-1-3.4-1-1.2-2-1.7-2.4-1.8zm-149.3.8c-.2 0 0 .3.3 1.4.4 1 1 1.7 1.4 1.3.4-.3 0-1.3-.8-2-.4-.5-.7-.8-1-.8zm83 0c-.7 0-1.4 0-2 .4-1 .2-1.4 1-1 1.8 1 1.5 7 1 7-.7 0-1-2-1.6-4-1.5zm-7.8 1.5s-.3 0-.5.2c-.6.4-.8 1.2-.4 1.8.4.6 1.2.7 1.8.4.6-.4.8-1.2.4-1.8-.3-.5-.8-.7-1.3-.6zm-200 2.3c-.3 0-.5 0-.6.2-.7.4-1 1.2-.5 1.8.3.6 1 .7 1.7.4.6-.4.8-1.2.4-1.8-.3-.5-.7-.8-1.2-.7zm272.2 0c-.4 0-1 .5-2 1.2-1 1-2.5 1.8-3.2 1.8-1.7 0-3 2-2 3.5 1 1.8 2.8 1.4 6-1.7 2.3-2.4 2.6-4.8 1.2-4.6zm-315 2.3c-.3 0-.5 0-.7.2-.6.4-.7 1.2-.3 1.8.3.6 1 .8 1.7.4.6-.4.8-1.2.4-1.8-.3-.4-.7-.6-1.2-.6zm261.3 1.2s-.3 0-.5.2c-.6.3-.7 1-.4 1.7.5.6 1.3.8 2 .4.5-.2.7-1 .3-1.6-.3-.5-.8-.7-1.3-.6zm42.8 0s-.3 0-.5.2c-.6.3-.7 1-.4 1.7.3.6 1 .8 1.7.4.6-.2.8-1 .4-1.6-.2-.5-.7-.7-1.2-.6zm-67 1.2h-.6c-.6.5-.7 1.3-.4 2 .4.5 1.2.7 1.8.3.6-.4.8-1.2.4-1.8-.3-.4-.8-.6-1.3-.5zm29 0h-.7c-.5.5-.6 1.3-.2 2 .3.5 1 .7 1.7.3.6-.4.8-1.2.4-1.8-.4-.4-.8-.6-1.3-.5zm57.7 0h-.5c-.6.5-.8 1.3-.4 2 .4.5 1.2.7 1.8.3.6-.4.7-1.2.4-1.8-.3-.4-.8-.6-1.3-.5zm-287 1l-.4.3c-.5.4-.7 1.2-.3 1.8.3.7 1 .8 1.7.5.6-.4.8-1.2.4-1.8-.2-.5-.7-.7-1.2-.6zm-38 1.3h-.6c-.7.5-1 1.3-.5 2 .4.5 1.2.7 1.8.3.6-.4.7-1.2.4-1.8-.3-.4-.8-.6-1.3-.5zm329.6 0h-.4c-.6.5-.7 1.3-.4 2 .4.5 1.2.7 1.8.3.6-.4.8-1.2.4-1.8-.3-.4-.8-.6-1.3-.5zm-142.8.4c-.6 0-1 .2-1 .6-1 1.6 3 3.8 9 4.7 9 1.5 11 2 11.7 2.5.8 1 2.4.7 2.4-.3 0-2-7.6-6-10-5.4-1.3.4-4.7 0-7.5-1-2.3-.8-3.8-1-4.8-1zm22.2.5c-1.2 0-2.3 1-1.7 2 .4.7 1 1.2 1.7 1.2 1.6 0 2.5-2 1.2-3l-1.2-.2zm5 .2s-.3 0-.5.2c-.7.4-.8 1.2-.5 1.8.4.6 1.2.7 1.8.4.6-.4.8-1.2.4-1.8-.3-.5-.8-.7-1.3-.6zm170 0l-.4.2c-.6.4-.8 1.2-.4 1.8.4.6 1.2.7 1.8.4.6-.4.7-1.2.4-1.8-.3-.5-.8-.7-1.3-.6zm-49 1c-1 0-2.2 1-1.6 2 .4.7 1.2 1.2 1.7 1.2 1.6 0 2.5-2 1.2-3-.4-.2-.8-.2-1.2-.2zm-103.6.2c-.2 0-.4 0-.5.2-.6.3-.8 1-.4 1.7.3.6 1 .8 1.7.4.6-.4.7-1.2.4-1.8-.2-.5-.7-.7-1.2-.6zm16.2 1l-.5.3c-.6.3-.8 1-.4 1.7.5.6 1.3.8 2 .4.5-.3.6-1 .3-1.7-.3-.4-.8-.6-1.3-.6zm10 1c-1.3.2-2.3 1.2-1.7 2.2.4.6 1 1 1.7 1 1.6 0 2.5-2 1.2-2.8l-1.2-.3zm73.3.3h-.5c-.6.4-.8 1.2-.4 1.8.4.6 1.2.8 1.8.4.6-.3.7-1 .4-1.7-.3-.5-.8-.7-1.3-.6zm59 0h-.5c-.6.4-.8 1.2-.4 1.8.4.6 1.2.8 1.8.4.6-.3.7-1 .4-1.7-.3-.5-.8-.7-1.3-.6zm-49 .8c-.4 0-.8 0-1 .3-1 .7-1 1.4 0 2.6 1 1.2 1.8 1.3 2.6.5 1-1.2-.2-3-1.7-3.2zm-339.7.3c-.2 0-.4 0-.6.2-.6.4-.7 1.2-.3 1.8.3.6 1 .8 1.7.4.6-.4.8-1.2.4-1.8-.3-.4-.7-.6-1.2-.5zm251 0c-.2 0-.3 0-.5.2-.5.4-.7 1.2-.3 1.8.4.6 1.2.8 1.8.4.6-.4.8-1.2.4-1.8-.4-.4-1-.6-1.4-.5zm-7.4.8c-3 .4-9.8 6-8.7 7.8.5 1 2 .5 4.7-1 5.4-3.2 6.8-5 5-6.6-.2-.2-.6-.2-1-.2zm-32 .4s-.3 0-.4.2c-.6.4-.8 1.2-.4 1.8.3.6 1 .7 1.7.4.7-.4 1-1.2.5-1.8-.2-.5-.7-.7-1.2-.6zm23.2 0s-.3 0-.5.2c-.7.4-1 1.2-.5 1.8.4.6 1.2.7 1.8.4.6-.4.8-1.2.4-1.8-.3-.5-.8-.7-1.3-.6zm-8 1c-.6 0-1.2 0-1.6.2-.7.5-1 1.3-.6 2 1 1.3 3.7 1.3 4.6-.2.7-1-1-2-2.5-2zm-9.6.2c-.6 0-1 0-1.6.4-.5.2-.6.8-.3 1.3.7 1.5 5.8 1 5-.4-.2-.7-1.4-1.2-2.7-1.2h-.5zm119.4 1l-.5.3c-.6.4-.7 1.2-.4 1.8.4.6 1.2.7 1.8.4.7-.5 1-1.3.5-2-.3-.4-.8-.6-1.3-.5zM836.8 390s-.3 0-.5.2c-.6.4-.7 1.2-.4 1.8.3.6 1 .8 1.7.4.6-.4.8-1.2.4-1.8-.2-.4-.7-.6-1.2-.6zm7 1.2c-.2 0-.4 0-.5.2-.6.3-.8 1-.4 1.7.3.5 1 .7 1.7.3.6-.3.7-1 .4-1.7-.2-.5-.7-.7-1.2-.6zm112.2 0c-.2 0-.3 0-.5.2-.6.3-.8 1-.4 1.7.5.5 1.3.7 2 .3.5-.3.7-1 .3-1.7-.3-.5-.8-.7-1.3-.6zm-25.4 2.3c-.2 0-.4 0-.5.2-.5.4-.7 1.2-.3 1.8.3.6 1 .7 1.7.4.6-.4.8-1.2.4-1.8-.3-.6-.7-.8-1.2-.7zm20.8 1.2h-.5c-.7.5-1 1.3-.5 2 .4.5 1.2.7 1.8.3.6-.4.7-1.2.4-1.8-.3-.4-.8-.6-1.3-.5zm-78.5 1c-.4 0-.5.2-.2.6.4.8-.6 2.2-2.2 3.3-1.6 1-2.6 2.3-2.3 2.8.3.6-.3 1.6-1.2 2.4-1.2 1-1.3 2-.4 3 .6.7.8 1.7.3 2-2 1-9 0-9.7-1.7-1-2.2-3.5-2.5-3.5-.4 0 1-1.2 2.4-2.8 3-1.6.8-2.6 2-2.2 3 .3.7.2 2-.3 2.8-.6 1-1.3 1-2.4-.6-1.4-2-1.5-2-1.6 0v3.7c.2 1.5-6.8 7.4-8.7 7.4-1 0-6.4 2.7-12.8 6.5-4.4 2.4-5 6.3-2 9.7 1 1.3 1.5 3 1 4.2-.7 1.8-.8 1.8-2.4-.3-1-1.3-1.7-1.6-1.7-.8s1 3 2.4 5c2.7 3.7 6 18.3 5.3 22.5-.4 2 .3 3 2.8 4.4 3 1.6 3.6 1.5 7.7-1.2 2.4-1.7 6-3 8-3 2.4 0 4.8-1 6.8-3 1.7-1.5 4.5-2.8 6-2.8 1.7 0 4.6-.5 6.6-1.2 5.3-1.8 14.3 1.8 16.7 6.7 1 2 2 3.7 2.5 3.8.4 0 1.6-2 2.7-4.2 1.5-3 2.3-3.8 3.3-3 1 1 1 2.2 0 4.4-1.8 4-1.8 4.6.2 3 1.2-1 1.8-1 2.4 0 .4.6.5 1.5 0 2-.2.2.8 2 2.4 4 1.5 1.8 2.8 4 2.8 5 0 2.5 7 4 9.5 2 1.8-1.5 2.3-1.4 4 .6 3 3 2.7 3 5.3-.4 1.3-1.6 3.2-2.7 4.7-2.6 1.6.2 2.5-.4 2.7-2 .4-3 2.5-9 5.2-15 2.6-6 5.5-29.8 3.5-29.2-1 .3-7-4-7-5 0-.6-1.4-2.4-3-4-1.6-1.8-2.6-3.7-2.3-4.2.3-.5-.5-1.2-1.8-1.6-3-1-7-8.8-7-14.3 0-3-.7-5-2-6.5-1.4-1-2.8-3.7-3.2-5.7-.4-2-1-4-1.4-4.7-1-1.5-3.5 6-3.6 10.3-.2 3.6-4 13.4-5.3 13.4-.5 0-3.7-2-7.2-4.7-6-4.4-6.3-5-5.6-8.3.4-2 1.2-4.2 1.8-4.8 1.4-1.5 1.3-4.4 0-3.6-.6.4-1.4.2-1.8-.4-.4-.6-1.6-1-2.7-1-1 0-3.2-.3-4.7-.8l-2-.4zm-252.5 1.3c-.2 0-.4 0-.5.2-.6.3-.8 1-.4 1.7.4.6 1.2.8 1.8.4.6-.2.7-1 .4-1.6-.3-.5-.8-.7-1.3-.6zm3.5 2.3c-.2 0-.4.2-.5.3-.6.3-.8 1-.4 1.7.4.6 1.2.8 1.8.4.6-.3.8-1 .4-1.7-.2-.5-.7-.7-1.2-.6zm14 1.2c-.3 0-.5.5-.5 1.3 0 3-3.6 7.5-7.8 9.4-4.6 2-6.5 6-5.5 11.4.5 2.6 0 4.7-1.2 6.7-2 3.2-2 6 .8 12.7 1 2.7 1.7 3 4.3 2.4 1.7-.3 3.5-1.2 4-2 1-1.4 2.3-6.3 5-18.5 1-5 2.3-10 2.8-11 1-2.3 0-11.3-1.3-12.3h-.4zm-10.6 2.4h-.5c-.7.5-.8 1.3-.5 2 .4.5 1.2.7 1.8.3.6-.5.8-1.3.4-2-.3-.3-.8-.5-1.3-.4zm259.2 0h-.5c-.5.5-.7 1.3-.3 2 .4.5 1.2.7 1.8.3.6-.5.7-1.3.4-2-.4-.3-1-.5-1.4-.4zm143.5 1l-.4.3c-.6.3-.8 1-.4 1.7.3.6 1 .8 1.6.4.6-.2 1.3 0 1.8.7.4.7 1.2 1 1.8.5.6-.3.8-1 .4-1.7-.4-.6-1-1-1.7-.5-.4.3-1.2 0-1.6-.6-.3-.5-.8-.7-1.3-.7zm-61.3 4.7s-.3 0-.5.2c-.6.4-.7 1.2-.4 1.8.4.6 1.2.8 1.8.4.6-.4.8-1.2.4-1.8-.3-.5-.8-.7-1.3-.7zM653 411.8c-.3 0-.5 0-.6.2-.6.4-.8 1.2-.4 1.8.4.6 1.2.7 1.8.4.6-.4.7-1.2.4-1.8-.3-.5-.8-.7-1.3-.6zm317 1.2c-.3 0-.5 0-.6.2-.6.3-.8 1-.4 1.7.4.5 1.2.7 1.8.3.6-.3.7-1 .4-1.7-.3-.5-.8-.7-1.3-.6zm34.6 0c-.2 0-.3 0-.5.2-.5.3-.7 1-.3 1.7.4.5 1.2.7 1.8.3.6-.3.7-1 .4-1.7-.4-.5-1-.7-1.4-.6zm-31.2 2.3c-.2 0-.4 0-.5.2-.7.3-1 1-.5 1.7.3.6 1 .8 1.7.4.6-.3.8-1 .4-1.7-.2-.6-.7-.8-1.2-.7zm-897.8 1l-.5.3c-.5.4-.7 1.2-.3 1.8.3.6 1 .8 1.7.4.6-.4.8-1.2.4-1.8-.2-.4-.7-.6-1.2-.6zm925.5 0c0 .2-.2.2-.4.3-.6.4-.7 1.2-.4 1.8.4.6 1.2.8 1.8.4.6-.4.8-1.2.4-1.8-.3-.4-.8-.6-1.3-.6zM79 419h-.5c-.6.5-.7 1.3-.4 2 .5.5 1.3.7 2 .3.5-.3.7-1 .3-1.7-.3-.4-.8-.6-1.3-.5zm943 5.7c-.2 0-.4 0-.5.2-.6.4-.8 1.2-.4 1.8.4.6 1.2.8 1.8.4.6-.5.8-1.3.4-2-.3-.3-.7-.5-1.2-.5zM111.4 427h-.5c-.7.4-.8 1.2-.5 1.8.4.6 1.2.8 1.8.4.6-.4.8-1.2.4-1.8-.3-.4-.8-.6-1.3-.5zm549.6 0h-.5c-.6.4-.8 1.2-.4 1.8.5.6 1.3.8 2 .4.5-.4.6-1.2.3-1.8-.3-.4-.8-.6-1.3-.5zm303.4 0c-.3 0-.6 0-.8.3-1 .8-.4 1.7 1.5 3 3 2 4 2.3 5 .8 1-1.3-3-4-5.2-4h-.4zm-308 1c-.2 0-.4 0-.5.2-.7.4-1 1.2-.5 1.8.3.6 1 .7 1.7.4.6-.4.8-1.2.4-1.8-.3-.5-.7-.7-1.2-.6zm362 0s-.3 0-.4.2c-.6.4-.8 1.2-.4 1.8.4.6 1.2.7 1.8.4.6-.4.7-1.2.4-1.8-.3-.5-.8-.7-1.3-.6zM100 429.2c-.3 0-.5 0-.6.2-.6.3-.8 1-.4 1.7.3.7 1 1 1.7.5.6-.4.8-1 .4-1.7 0-.5-.6-.7-1-.6zm18.4 4.6c-.2 0-.4 0-.5.2-.7.4-1 1-.5 1.8.3.6 1 .7 1.7.3.6-.2.8-1 .4-1.6-.2-.5-.7-.7-1.2-.6zm16.2 4.6c-.2 0-.4 0-.5.2-.5.4-.7 1.2-.3 1.8.3.6 1 .7 1.7.4.6-.4.8-1.2.4-1.8-.2-.4-.7-.6-1.2-.6zm10.4 2.3c-.2 0-.4 0-.5.2-.6.3-.8 1-.4 1.7.5.6 1.3.8 2 .4.5-.3.6-1 .3-1.7-.3-.4-.8-.6-1.3-.6zm56.7 4.7h-.5c-.6.5-.8 1.3-.4 2 .3.5 1 .7 1.7.3.7-.4.8-1 .4-1.8-.3-.5-.8-.7-1.3-.6zm-14 2.3s-.3 0-.4.2c-.6.2-.8 1-.4 1.6.3.6 1 .8 1.7.4.6-.3.7-1 .4-1.7-.2-.5-.7-.7-1.2-.6zm85.7 25.4l-.5.3c-.7.4-1 1.2-.5 1.8.4.7 1.2 1 1.8.5.6-.4.7-1.2.4-1.8-.3-.4-.8-.6-1.3-.6zm714 4.7h-.2c-.3.3.4 2 1.7 4 3.4 5 4 8 2 11-1.6 2.7-1.5 3 .6 3.5 1.3.3 2.2 1.5 2.2 3 0 3.7 2 2.8 3.3-1.4.6-2 1.7-3.6 2.4-3.4.8 0 1.3-.2 1.3-.8 0-.6.4-2 .8-3 .6-1.7.4-2-1.2-1.3-1.5.5-2.3 0-2.7-1.6-.5-2-1-2-2.2-1-1.2 1-1.8.8-2.4-1-1-3-4.6-8-5.6-8zm-102 2.4l-.5.3c-.7.3-.8 1-.5 1.7.4.6 1.2.8 1.8.4.6-.3.8-1 .4-1.7-.3-.5-.8-.7-1.3-.6zm31.3 15c-.2 0-.4.2-.5.3-.6.4-.8 1.2-.4 1.8.3.7 1 .8 1.7.5.6-.4.8-1.2.4-1.8-.3-.5-.8-.7-1.3-.6zm-10.4 1.3c-.2 0-.4 0-.5.2-.6.3-.8 1-.4 1.7.3.6 1 .8 1.7.4.7-.3 1-1 .5-1.7-.2-.6-.7-.8-1.2-.7zm4 4.5c-1.7 0-1.6.6-1 2.3l1.6 4.7c.6 2 5.8 2.2 6 0 0-.4.5-1.8 1-3 1.2-2.8.2-3.5-5.2-3.8-1-.2-1.8-.2-2.4-.2zm77.7.3c-1.8.3-4.6 3-4.6 5 0 .6-1.4 2.3-3 3.6-5 4-12.5 14.7-8.6 12.2.6-.4 2 0 3.2.5 2.7 1.6 4.4 1.6 5.8-.2 1.3-1.4 1.4-2 1.4-4.8 0-1 1.4-3.2 3-4.8 1.6-1.6 2.6-3.3 2.2-4-.4-.5 0-1.4 1-1.7 2.4-1 2.5-4.6.3-5.5h-.3-.4zm-702 3.4c-1 0-1.7 1.6-.8 3 .6 1 1.2 1 2 0 1-.8 1-1.5 0-2.4-.3-.4-.7-.6-1-.6zm688.5 20.8s-.3 0-.5.2c-.6.4-.8 1-.4 1.8.4.6 1.2.7 1.8.3.6-.3.8-1 .4-1.7-.3-.5-.8-.7-1.3-.6zm-690.7 1.2h-.5c-.6.5-.8 1.3-.4 2 .3.5 1 .7 1.7.3.6-.4.8-1.2.4-1.8-.2-.5-.7-.7-1.2-.6zm409.6 3.6c-1.3 0-2 1.6-.4 3.4 1.8 2.2 2.8 2.2 4.6 0 1-1.4 1-2.3 0-1.6l-.6.2c-.4 0-1.2-.6-2-1.3-.6-.5-1-.7-1.6-.7zm-409.6 2c0 .2-.3.2-.5.3-.6.4-.8 1.2-.4 1.8.3.7 1 1 1.7.5.6-.4.8-1.2.4-1.8-.2-.4-.7-.6-1.2-.6zm683.8 3.6c-.2 0-.4 0-.5.2-.5.4-.7 1.2-.3 1.8.4.6 1 .7 1.8.4.6-.4.7-1.2.3-1.8-.2-.5-.7-.7-1.2-.6zM283.8 538h-.5c-.6.5-.8 1.3-.4 2 .3.5 1 .6 1.7.3.6-.4.8-1.2.4-1.8-.2-.4-.7-.7-1.2-.6zm47.5 2.2c-.2 0-.4 0-.5.2-.7.4-1 1-.5 1.7.3.6 0 1.4-.6 1.8-.7.4-1 1.3-.5 2 .4.5 1.2.6 1.8.3.6-.3.8-1 .4-1.6-.3-.6 0-1.3.6-1.7.7-.4 1-1.3.5-2-.3-.3-.7-.5-1.2-.5zm-5 1c-1.5 0-2.7 1.7-1.8 3.2.6 1 1.2 1 2.5 0 1-1 1.3-2 .4-2.7-.4-.4-.8-.6-1.2-.5zm-38.5 4.7c-.3 0-.7 0-1 .2-1 .6-.8 1.3.8 2.5 1.2.8 2 1.8 2 2-.3.4-.4 1-.4 1.3 0 .3.6.3 1.2 0 1-.6.8-1.4 0-2.5-1-1-1-1.6-.5-1.6.4 0 .2-.7-.5-1.4-.4-.5-1-.7-1.7-.7zM706 547l-.4.2c-.6.3-.8 1-.4 1.7s1.2 1 1.8.5c.6-.3.7-1 .4-1.7-.3-.5-.8-.7-1.3-.6zm-405.2 1c-.6 0-.7 1-.7 2.8.2 2.7-.2 3.2-2.5 3-1.5-.2-2.3 0-2 .8.5.6 2.3 1.2 4 1.2 2 0 3.7.4 4 1 .8 1.2 3 1 5-.2 1-.6 0-2.2-2.7-5-2.5-2.3-4-3.6-4.7-3.7h-.2zm90 3.6c-.4 0-1 0-1.2.3-.8.6-.5 1.4 1 2.4 2.4 2 4.6 2 5.6.4.7-1-3-3-5.3-3zm-77 2.3l-.4.3c-.6.4-.8 1.2-.4 1.8.4.7 1.2.8 1.8.5.6-.4.7-1.2.4-1.8-.3-.5-.8-.7-1.3-.6zm-13 4.6c-1.3 0-2.4 1-1.7 2 .4.7 1.2 1.2 1.8 1.2 1.6 0 2.5-2 1.2-3-.4-.2-.8-.2-1.3-.2z"/></svg>